%TF.GenerationSoftware,KiCad,Pcbnew,10.0.2*%
%TF.CreationDate,2026-09-15T18:13:41+10:00*%
%TF.ProjectId,fir3fly_one_side,66697233-666c-4795-9f6f-6e655f736964,v1.0*%
%TF.SameCoordinates,Original*%
%TF.FileFunction,Legend,Top*%
%TF.FilePolarity,Positive*%
%FSLAX46Y46*%
G04 Gerber Fmt 4.6, Leading zero omitted, Abs format (unit mm)*
G04 Created by KiCad (PCBNEW 10.0.2) date 2026-09-15 18:13:41*
%MOMM*%
%LPD*%
G01*
G04 APERTURE LIST*
%ADD10C,0.150000*%
%ADD11C,0.300000*%
%ADD12C,0.400000*%
%ADD13C,0.100000*%
%ADD14C,0.200000*%
%ADD15C,0.130000*%
%ADD16C,0.120000*%
%ADD17C,0.152400*%
%ADD18C,0.150114*%
G04 APERTURE END LIST*
D10*
X28811000Y-156897800D02*
X118811000Y-156897800D01*
X118811000Y-178397800D01*
X28811000Y-178397800D01*
X28811000Y-156897800D01*
X10000000Y-10000000D02*
X120800000Y-10000000D01*
X120800000Y-180400000D01*
X10000000Y-180400000D01*
X10000000Y-10000000D01*
X12000000Y-12000000D02*
X118800000Y-12000000D01*
X118800000Y-178400000D01*
X12000000Y-178400000D01*
X12000000Y-12000000D01*
X60000000Y-12000000D02*
X60000000Y-10000000D01*
X110000000Y-12000000D02*
X110000000Y-10000000D01*
X36089160Y-11593604D02*
X35346303Y-11593604D01*
X35717731Y-11593604D02*
X35717731Y-10293604D01*
X35717731Y-10293604D02*
X35593922Y-10479319D01*
X35593922Y-10479319D02*
X35470112Y-10603128D01*
X35470112Y-10603128D02*
X35346303Y-10665033D01*
X85346303Y-10417414D02*
X85408207Y-10355509D01*
X85408207Y-10355509D02*
X85532017Y-10293604D01*
X85532017Y-10293604D02*
X85841541Y-10293604D01*
X85841541Y-10293604D02*
X85965350Y-10355509D01*
X85965350Y-10355509D02*
X86027255Y-10417414D01*
X86027255Y-10417414D02*
X86089160Y-10541223D01*
X86089160Y-10541223D02*
X86089160Y-10665033D01*
X86089160Y-10665033D02*
X86027255Y-10850747D01*
X86027255Y-10850747D02*
X85284398Y-11593604D01*
X85284398Y-11593604D02*
X86089160Y-11593604D01*
X60000000Y-178400000D02*
X60000000Y-180400000D01*
X110000000Y-178400000D02*
X110000000Y-180400000D01*
X36089160Y-179993604D02*
X35346303Y-179993604D01*
X35717731Y-179993604D02*
X35717731Y-178693604D01*
X35717731Y-178693604D02*
X35593922Y-178879319D01*
X35593922Y-178879319D02*
X35470112Y-179003128D01*
X35470112Y-179003128D02*
X35346303Y-179065033D01*
X85346303Y-178817414D02*
X85408207Y-178755509D01*
X85408207Y-178755509D02*
X85532017Y-178693604D01*
X85532017Y-178693604D02*
X85841541Y-178693604D01*
X85841541Y-178693604D02*
X85965350Y-178755509D01*
X85965350Y-178755509D02*
X86027255Y-178817414D01*
X86027255Y-178817414D02*
X86089160Y-178941223D01*
X86089160Y-178941223D02*
X86089160Y-179065033D01*
X86089160Y-179065033D02*
X86027255Y-179250747D01*
X86027255Y-179250747D02*
X85284398Y-179993604D01*
X85284398Y-179993604D02*
X86089160Y-179993604D01*
X10000000Y-60000000D02*
X12000000Y-60000000D01*
X10000000Y-110000000D02*
X12000000Y-110000000D01*
X10000000Y-160000000D02*
X12000000Y-160000000D01*
X10690476Y-35222176D02*
X11309523Y-35222176D01*
X10566666Y-35593604D02*
X10999999Y-34293604D01*
X10999999Y-34293604D02*
X11433333Y-35593604D01*
X11092857Y-84912652D02*
X11278571Y-84974557D01*
X11278571Y-84974557D02*
X11340476Y-85036461D01*
X11340476Y-85036461D02*
X11402380Y-85160271D01*
X11402380Y-85160271D02*
X11402380Y-85345985D01*
X11402380Y-85345985D02*
X11340476Y-85469795D01*
X11340476Y-85469795D02*
X11278571Y-85531700D01*
X11278571Y-85531700D02*
X11154761Y-85593604D01*
X11154761Y-85593604D02*
X10659523Y-85593604D01*
X10659523Y-85593604D02*
X10659523Y-84293604D01*
X10659523Y-84293604D02*
X11092857Y-84293604D01*
X11092857Y-84293604D02*
X11216666Y-84355509D01*
X11216666Y-84355509D02*
X11278571Y-84417414D01*
X11278571Y-84417414D02*
X11340476Y-84541223D01*
X11340476Y-84541223D02*
X11340476Y-84665033D01*
X11340476Y-84665033D02*
X11278571Y-84788842D01*
X11278571Y-84788842D02*
X11216666Y-84850747D01*
X11216666Y-84850747D02*
X11092857Y-84912652D01*
X11092857Y-84912652D02*
X10659523Y-84912652D01*
X11402380Y-135469795D02*
X11340476Y-135531700D01*
X11340476Y-135531700D02*
X11154761Y-135593604D01*
X11154761Y-135593604D02*
X11030952Y-135593604D01*
X11030952Y-135593604D02*
X10845238Y-135531700D01*
X10845238Y-135531700D02*
X10721428Y-135407890D01*
X10721428Y-135407890D02*
X10659523Y-135284080D01*
X10659523Y-135284080D02*
X10597619Y-135036461D01*
X10597619Y-135036461D02*
X10597619Y-134850747D01*
X10597619Y-134850747D02*
X10659523Y-134603128D01*
X10659523Y-134603128D02*
X10721428Y-134479319D01*
X10721428Y-134479319D02*
X10845238Y-134355509D01*
X10845238Y-134355509D02*
X11030952Y-134293604D01*
X11030952Y-134293604D02*
X11154761Y-134293604D01*
X11154761Y-134293604D02*
X11340476Y-134355509D01*
X11340476Y-134355509D02*
X11402380Y-134417414D01*
X120800000Y-60000000D02*
X118800000Y-60000000D01*
X120800000Y-110000000D02*
X118800000Y-110000000D01*
X120800000Y-160000000D02*
X118800000Y-160000000D01*
X119490476Y-35222176D02*
X120109523Y-35222176D01*
X119366666Y-35593604D02*
X119799999Y-34293604D01*
X119799999Y-34293604D02*
X120233333Y-35593604D01*
X119892857Y-84912652D02*
X120078571Y-84974557D01*
X120078571Y-84974557D02*
X120140476Y-85036461D01*
X120140476Y-85036461D02*
X120202380Y-85160271D01*
X120202380Y-85160271D02*
X120202380Y-85345985D01*
X120202380Y-85345985D02*
X120140476Y-85469795D01*
X120140476Y-85469795D02*
X120078571Y-85531700D01*
X120078571Y-85531700D02*
X119954761Y-85593604D01*
X119954761Y-85593604D02*
X119459523Y-85593604D01*
X119459523Y-85593604D02*
X119459523Y-84293604D01*
X119459523Y-84293604D02*
X119892857Y-84293604D01*
X119892857Y-84293604D02*
X120016666Y-84355509D01*
X120016666Y-84355509D02*
X120078571Y-84417414D01*
X120078571Y-84417414D02*
X120140476Y-84541223D01*
X120140476Y-84541223D02*
X120140476Y-84665033D01*
X120140476Y-84665033D02*
X120078571Y-84788842D01*
X120078571Y-84788842D02*
X120016666Y-84850747D01*
X120016666Y-84850747D02*
X119892857Y-84912652D01*
X119892857Y-84912652D02*
X119459523Y-84912652D01*
X120202380Y-135469795D02*
X120140476Y-135531700D01*
X120140476Y-135531700D02*
X119954761Y-135593604D01*
X119954761Y-135593604D02*
X119830952Y-135593604D01*
X119830952Y-135593604D02*
X119645238Y-135531700D01*
X119645238Y-135531700D02*
X119521428Y-135407890D01*
X119521428Y-135407890D02*
X119459523Y-135284080D01*
X119459523Y-135284080D02*
X119397619Y-135036461D01*
X119397619Y-135036461D02*
X119397619Y-134850747D01*
X119397619Y-134850747D02*
X119459523Y-134603128D01*
X119459523Y-134603128D02*
X119521428Y-134479319D01*
X119521428Y-134479319D02*
X119645238Y-134355509D01*
X119645238Y-134355509D02*
X119830952Y-134293604D01*
X119830952Y-134293604D02*
X119954761Y-134293604D01*
X119954761Y-134293604D02*
X120140476Y-134355509D01*
X120140476Y-134355509D02*
X120202380Y-134417414D01*
X68755826Y-174185928D02*
X68755826Y-172685928D01*
X68755826Y-172685928D02*
X69112969Y-172685928D01*
X69112969Y-172685928D02*
X69327255Y-172757357D01*
X69327255Y-172757357D02*
X69470112Y-172900214D01*
X69470112Y-172900214D02*
X69541541Y-173043071D01*
X69541541Y-173043071D02*
X69612969Y-173328785D01*
X69612969Y-173328785D02*
X69612969Y-173543071D01*
X69612969Y-173543071D02*
X69541541Y-173828785D01*
X69541541Y-173828785D02*
X69470112Y-173971642D01*
X69470112Y-173971642D02*
X69327255Y-174114500D01*
X69327255Y-174114500D02*
X69112969Y-174185928D01*
X69112969Y-174185928D02*
X68755826Y-174185928D01*
X70898684Y-174185928D02*
X70898684Y-173400214D01*
X70898684Y-173400214D02*
X70827255Y-173257357D01*
X70827255Y-173257357D02*
X70684398Y-173185928D01*
X70684398Y-173185928D02*
X70398684Y-173185928D01*
X70398684Y-173185928D02*
X70255826Y-173257357D01*
X70898684Y-174114500D02*
X70755826Y-174185928D01*
X70755826Y-174185928D02*
X70398684Y-174185928D01*
X70398684Y-174185928D02*
X70255826Y-174114500D01*
X70255826Y-174114500D02*
X70184398Y-173971642D01*
X70184398Y-173971642D02*
X70184398Y-173828785D01*
X70184398Y-173828785D02*
X70255826Y-173685928D01*
X70255826Y-173685928D02*
X70398684Y-173614500D01*
X70398684Y-173614500D02*
X70755826Y-173614500D01*
X70755826Y-173614500D02*
X70898684Y-173543071D01*
X71398684Y-173185928D02*
X71970112Y-173185928D01*
X71612969Y-172685928D02*
X71612969Y-173971642D01*
X71612969Y-173971642D02*
X71684398Y-174114500D01*
X71684398Y-174114500D02*
X71827255Y-174185928D01*
X71827255Y-174185928D02*
X71970112Y-174185928D01*
X73041541Y-174114500D02*
X72898684Y-174185928D01*
X72898684Y-174185928D02*
X72612970Y-174185928D01*
X72612970Y-174185928D02*
X72470112Y-174114500D01*
X72470112Y-174114500D02*
X72398684Y-173971642D01*
X72398684Y-173971642D02*
X72398684Y-173400214D01*
X72398684Y-173400214D02*
X72470112Y-173257357D01*
X72470112Y-173257357D02*
X72612970Y-173185928D01*
X72612970Y-173185928D02*
X72898684Y-173185928D01*
X72898684Y-173185928D02*
X73041541Y-173257357D01*
X73041541Y-173257357D02*
X73112970Y-173400214D01*
X73112970Y-173400214D02*
X73112970Y-173543071D01*
X73112970Y-173543071D02*
X72398684Y-173685928D01*
X73755826Y-174043071D02*
X73827255Y-174114500D01*
X73827255Y-174114500D02*
X73755826Y-174185928D01*
X73755826Y-174185928D02*
X73684398Y-174114500D01*
X73684398Y-174114500D02*
X73755826Y-174043071D01*
X73755826Y-174043071D02*
X73755826Y-174185928D01*
X73755826Y-173257357D02*
X73827255Y-173328785D01*
X73827255Y-173328785D02*
X73755826Y-173400214D01*
X73755826Y-173400214D02*
X73684398Y-173328785D01*
X73684398Y-173328785D02*
X73755826Y-173257357D01*
X73755826Y-173257357D02*
X73755826Y-173400214D01*
X75541541Y-172828785D02*
X75612969Y-172757357D01*
X75612969Y-172757357D02*
X75755827Y-172685928D01*
X75755827Y-172685928D02*
X76112969Y-172685928D01*
X76112969Y-172685928D02*
X76255827Y-172757357D01*
X76255827Y-172757357D02*
X76327255Y-172828785D01*
X76327255Y-172828785D02*
X76398684Y-172971642D01*
X76398684Y-172971642D02*
X76398684Y-173114500D01*
X76398684Y-173114500D02*
X76327255Y-173328785D01*
X76327255Y-173328785D02*
X75470112Y-174185928D01*
X75470112Y-174185928D02*
X76398684Y-174185928D01*
X77327255Y-172685928D02*
X77470112Y-172685928D01*
X77470112Y-172685928D02*
X77612969Y-172757357D01*
X77612969Y-172757357D02*
X77684398Y-172828785D01*
X77684398Y-172828785D02*
X77755826Y-172971642D01*
X77755826Y-172971642D02*
X77827255Y-173257357D01*
X77827255Y-173257357D02*
X77827255Y-173614500D01*
X77827255Y-173614500D02*
X77755826Y-173900214D01*
X77755826Y-173900214D02*
X77684398Y-174043071D01*
X77684398Y-174043071D02*
X77612969Y-174114500D01*
X77612969Y-174114500D02*
X77470112Y-174185928D01*
X77470112Y-174185928D02*
X77327255Y-174185928D01*
X77327255Y-174185928D02*
X77184398Y-174114500D01*
X77184398Y-174114500D02*
X77112969Y-174043071D01*
X77112969Y-174043071D02*
X77041540Y-173900214D01*
X77041540Y-173900214D02*
X76970112Y-173614500D01*
X76970112Y-173614500D02*
X76970112Y-173257357D01*
X76970112Y-173257357D02*
X77041540Y-172971642D01*
X77041540Y-172971642D02*
X77112969Y-172828785D01*
X77112969Y-172828785D02*
X77184398Y-172757357D01*
X77184398Y-172757357D02*
X77327255Y-172685928D01*
X78398683Y-172828785D02*
X78470111Y-172757357D01*
X78470111Y-172757357D02*
X78612969Y-172685928D01*
X78612969Y-172685928D02*
X78970111Y-172685928D01*
X78970111Y-172685928D02*
X79112969Y-172757357D01*
X79112969Y-172757357D02*
X79184397Y-172828785D01*
X79184397Y-172828785D02*
X79255826Y-172971642D01*
X79255826Y-172971642D02*
X79255826Y-173114500D01*
X79255826Y-173114500D02*
X79184397Y-173328785D01*
X79184397Y-173328785D02*
X78327254Y-174185928D01*
X78327254Y-174185928D02*
X79255826Y-174185928D01*
X80541540Y-172685928D02*
X80255825Y-172685928D01*
X80255825Y-172685928D02*
X80112968Y-172757357D01*
X80112968Y-172757357D02*
X80041540Y-172828785D01*
X80041540Y-172828785D02*
X79898682Y-173043071D01*
X79898682Y-173043071D02*
X79827254Y-173328785D01*
X79827254Y-173328785D02*
X79827254Y-173900214D01*
X79827254Y-173900214D02*
X79898682Y-174043071D01*
X79898682Y-174043071D02*
X79970111Y-174114500D01*
X79970111Y-174114500D02*
X80112968Y-174185928D01*
X80112968Y-174185928D02*
X80398682Y-174185928D01*
X80398682Y-174185928D02*
X80541540Y-174114500D01*
X80541540Y-174114500D02*
X80612968Y-174043071D01*
X80612968Y-174043071D02*
X80684397Y-173900214D01*
X80684397Y-173900214D02*
X80684397Y-173543071D01*
X80684397Y-173543071D02*
X80612968Y-173400214D01*
X80612968Y-173400214D02*
X80541540Y-173328785D01*
X80541540Y-173328785D02*
X80398682Y-173257357D01*
X80398682Y-173257357D02*
X80112968Y-173257357D01*
X80112968Y-173257357D02*
X79970111Y-173328785D01*
X79970111Y-173328785D02*
X79898682Y-173400214D01*
X79898682Y-173400214D02*
X79827254Y-173543071D01*
X81327253Y-173614500D02*
X82470111Y-173614500D01*
X83470111Y-172685928D02*
X83612968Y-172685928D01*
X83612968Y-172685928D02*
X83755825Y-172757357D01*
X83755825Y-172757357D02*
X83827254Y-172828785D01*
X83827254Y-172828785D02*
X83898682Y-172971642D01*
X83898682Y-172971642D02*
X83970111Y-173257357D01*
X83970111Y-173257357D02*
X83970111Y-173614500D01*
X83970111Y-173614500D02*
X83898682Y-173900214D01*
X83898682Y-173900214D02*
X83827254Y-174043071D01*
X83827254Y-174043071D02*
X83755825Y-174114500D01*
X83755825Y-174114500D02*
X83612968Y-174185928D01*
X83612968Y-174185928D02*
X83470111Y-174185928D01*
X83470111Y-174185928D02*
X83327254Y-174114500D01*
X83327254Y-174114500D02*
X83255825Y-174043071D01*
X83255825Y-174043071D02*
X83184396Y-173900214D01*
X83184396Y-173900214D02*
X83112968Y-173614500D01*
X83112968Y-173614500D02*
X83112968Y-173257357D01*
X83112968Y-173257357D02*
X83184396Y-172971642D01*
X83184396Y-172971642D02*
X83255825Y-172828785D01*
X83255825Y-172828785D02*
X83327254Y-172757357D01*
X83327254Y-172757357D02*
X83470111Y-172685928D01*
X84684396Y-174185928D02*
X84970110Y-174185928D01*
X84970110Y-174185928D02*
X85112967Y-174114500D01*
X85112967Y-174114500D02*
X85184396Y-174043071D01*
X85184396Y-174043071D02*
X85327253Y-173828785D01*
X85327253Y-173828785D02*
X85398682Y-173543071D01*
X85398682Y-173543071D02*
X85398682Y-172971642D01*
X85398682Y-172971642D02*
X85327253Y-172828785D01*
X85327253Y-172828785D02*
X85255825Y-172757357D01*
X85255825Y-172757357D02*
X85112967Y-172685928D01*
X85112967Y-172685928D02*
X84827253Y-172685928D01*
X84827253Y-172685928D02*
X84684396Y-172757357D01*
X84684396Y-172757357D02*
X84612967Y-172828785D01*
X84612967Y-172828785D02*
X84541539Y-172971642D01*
X84541539Y-172971642D02*
X84541539Y-173328785D01*
X84541539Y-173328785D02*
X84612967Y-173471642D01*
X84612967Y-173471642D02*
X84684396Y-173543071D01*
X84684396Y-173543071D02*
X84827253Y-173614500D01*
X84827253Y-173614500D02*
X85112967Y-173614500D01*
X85112967Y-173614500D02*
X85255825Y-173543071D01*
X85255825Y-173543071D02*
X85327253Y-173471642D01*
X85327253Y-173471642D02*
X85398682Y-173328785D01*
X86041538Y-173614500D02*
X87184396Y-173614500D01*
X88684396Y-174185928D02*
X87827253Y-174185928D01*
X88255824Y-174185928D02*
X88255824Y-172685928D01*
X88255824Y-172685928D02*
X88112967Y-172900214D01*
X88112967Y-172900214D02*
X87970110Y-173043071D01*
X87970110Y-173043071D02*
X87827253Y-173114500D01*
X90041538Y-172685928D02*
X89327252Y-172685928D01*
X89327252Y-172685928D02*
X89255824Y-173400214D01*
X89255824Y-173400214D02*
X89327252Y-173328785D01*
X89327252Y-173328785D02*
X89470110Y-173257357D01*
X89470110Y-173257357D02*
X89827252Y-173257357D01*
X89827252Y-173257357D02*
X89970110Y-173328785D01*
X89970110Y-173328785D02*
X90041538Y-173400214D01*
X90041538Y-173400214D02*
X90112967Y-173543071D01*
X90112967Y-173543071D02*
X90112967Y-173900214D01*
X90112967Y-173900214D02*
X90041538Y-174043071D01*
X90041538Y-174043071D02*
X89970110Y-174114500D01*
X89970110Y-174114500D02*
X89827252Y-174185928D01*
X89827252Y-174185928D02*
X89470110Y-174185928D01*
X89470110Y-174185928D02*
X89327252Y-174114500D01*
X89327252Y-174114500D02*
X89255824Y-174043071D01*
X45300000Y-174899800D02*
X118811000Y-174897800D01*
X46755826Y-176985928D02*
X46755826Y-175485928D01*
X47612969Y-176985928D02*
X46970112Y-176128785D01*
X47612969Y-175485928D02*
X46755826Y-176343071D01*
X48255826Y-176985928D02*
X48255826Y-175985928D01*
X48255826Y-175485928D02*
X48184398Y-175557357D01*
X48184398Y-175557357D02*
X48255826Y-175628785D01*
X48255826Y-175628785D02*
X48327255Y-175557357D01*
X48327255Y-175557357D02*
X48255826Y-175485928D01*
X48255826Y-175485928D02*
X48255826Y-175628785D01*
X49827255Y-176843071D02*
X49755827Y-176914500D01*
X49755827Y-176914500D02*
X49541541Y-176985928D01*
X49541541Y-176985928D02*
X49398684Y-176985928D01*
X49398684Y-176985928D02*
X49184398Y-176914500D01*
X49184398Y-176914500D02*
X49041541Y-176771642D01*
X49041541Y-176771642D02*
X48970112Y-176628785D01*
X48970112Y-176628785D02*
X48898684Y-176343071D01*
X48898684Y-176343071D02*
X48898684Y-176128785D01*
X48898684Y-176128785D02*
X48970112Y-175843071D01*
X48970112Y-175843071D02*
X49041541Y-175700214D01*
X49041541Y-175700214D02*
X49184398Y-175557357D01*
X49184398Y-175557357D02*
X49398684Y-175485928D01*
X49398684Y-175485928D02*
X49541541Y-175485928D01*
X49541541Y-175485928D02*
X49755827Y-175557357D01*
X49755827Y-175557357D02*
X49827255Y-175628785D01*
X51112970Y-176985928D02*
X51112970Y-176200214D01*
X51112970Y-176200214D02*
X51041541Y-176057357D01*
X51041541Y-176057357D02*
X50898684Y-175985928D01*
X50898684Y-175985928D02*
X50612970Y-175985928D01*
X50612970Y-175985928D02*
X50470112Y-176057357D01*
X51112970Y-176914500D02*
X50970112Y-176985928D01*
X50970112Y-176985928D02*
X50612970Y-176985928D01*
X50612970Y-176985928D02*
X50470112Y-176914500D01*
X50470112Y-176914500D02*
X50398684Y-176771642D01*
X50398684Y-176771642D02*
X50398684Y-176628785D01*
X50398684Y-176628785D02*
X50470112Y-176485928D01*
X50470112Y-176485928D02*
X50612970Y-176414500D01*
X50612970Y-176414500D02*
X50970112Y-176414500D01*
X50970112Y-176414500D02*
X51112970Y-176343071D01*
X52470113Y-176985928D02*
X52470113Y-175485928D01*
X52470113Y-176914500D02*
X52327255Y-176985928D01*
X52327255Y-176985928D02*
X52041541Y-176985928D01*
X52041541Y-176985928D02*
X51898684Y-176914500D01*
X51898684Y-176914500D02*
X51827255Y-176843071D01*
X51827255Y-176843071D02*
X51755827Y-176700214D01*
X51755827Y-176700214D02*
X51755827Y-176271642D01*
X51755827Y-176271642D02*
X51827255Y-176128785D01*
X51827255Y-176128785D02*
X51898684Y-176057357D01*
X51898684Y-176057357D02*
X52041541Y-175985928D01*
X52041541Y-175985928D02*
X52327255Y-175985928D01*
X52327255Y-175985928D02*
X52470113Y-176057357D01*
X54327255Y-176200214D02*
X54827255Y-176200214D01*
X55041541Y-176985928D02*
X54327255Y-176985928D01*
X54327255Y-176985928D02*
X54327255Y-175485928D01*
X54327255Y-175485928D02*
X55041541Y-175485928D01*
X55684398Y-176843071D02*
X55755827Y-176914500D01*
X55755827Y-176914500D02*
X55684398Y-176985928D01*
X55684398Y-176985928D02*
X55612970Y-176914500D01*
X55612970Y-176914500D02*
X55684398Y-176843071D01*
X55684398Y-176843071D02*
X55684398Y-176985928D01*
X56398684Y-176985928D02*
X56398684Y-175485928D01*
X56398684Y-175485928D02*
X56755827Y-175485928D01*
X56755827Y-175485928D02*
X56970113Y-175557357D01*
X56970113Y-175557357D02*
X57112970Y-175700214D01*
X57112970Y-175700214D02*
X57184399Y-175843071D01*
X57184399Y-175843071D02*
X57255827Y-176128785D01*
X57255827Y-176128785D02*
X57255827Y-176343071D01*
X57255827Y-176343071D02*
X57184399Y-176628785D01*
X57184399Y-176628785D02*
X57112970Y-176771642D01*
X57112970Y-176771642D02*
X56970113Y-176914500D01*
X56970113Y-176914500D02*
X56755827Y-176985928D01*
X56755827Y-176985928D02*
X56398684Y-176985928D01*
X57898684Y-176843071D02*
X57970113Y-176914500D01*
X57970113Y-176914500D02*
X57898684Y-176985928D01*
X57898684Y-176985928D02*
X57827256Y-176914500D01*
X57827256Y-176914500D02*
X57898684Y-176843071D01*
X57898684Y-176843071D02*
X57898684Y-176985928D01*
X58541542Y-176557357D02*
X59255828Y-176557357D01*
X58398685Y-176985928D02*
X58898685Y-175485928D01*
X58898685Y-175485928D02*
X59398685Y-176985928D01*
X59898684Y-176843071D02*
X59970113Y-176914500D01*
X59970113Y-176914500D02*
X59898684Y-176985928D01*
X59898684Y-176985928D02*
X59827256Y-176914500D01*
X59827256Y-176914500D02*
X59898684Y-176843071D01*
X59898684Y-176843071D02*
X59898684Y-176985928D01*
X62541542Y-176985928D02*
X61684399Y-176985928D01*
X62112970Y-176985928D02*
X62112970Y-175485928D01*
X62112970Y-175485928D02*
X61970113Y-175700214D01*
X61970113Y-175700214D02*
X61827256Y-175843071D01*
X61827256Y-175843071D02*
X61684399Y-175914500D01*
X63470113Y-175485928D02*
X63612970Y-175485928D01*
X63612970Y-175485928D02*
X63755827Y-175557357D01*
X63755827Y-175557357D02*
X63827256Y-175628785D01*
X63827256Y-175628785D02*
X63898684Y-175771642D01*
X63898684Y-175771642D02*
X63970113Y-176057357D01*
X63970113Y-176057357D02*
X63970113Y-176414500D01*
X63970113Y-176414500D02*
X63898684Y-176700214D01*
X63898684Y-176700214D02*
X63827256Y-176843071D01*
X63827256Y-176843071D02*
X63755827Y-176914500D01*
X63755827Y-176914500D02*
X63612970Y-176985928D01*
X63612970Y-176985928D02*
X63470113Y-176985928D01*
X63470113Y-176985928D02*
X63327256Y-176914500D01*
X63327256Y-176914500D02*
X63255827Y-176843071D01*
X63255827Y-176843071D02*
X63184398Y-176700214D01*
X63184398Y-176700214D02*
X63112970Y-176414500D01*
X63112970Y-176414500D02*
X63112970Y-176057357D01*
X63112970Y-176057357D02*
X63184398Y-175771642D01*
X63184398Y-175771642D02*
X63255827Y-175628785D01*
X63255827Y-175628785D02*
X63327256Y-175557357D01*
X63327256Y-175557357D02*
X63470113Y-175485928D01*
X64612969Y-176843071D02*
X64684398Y-176914500D01*
X64684398Y-176914500D02*
X64612969Y-176985928D01*
X64612969Y-176985928D02*
X64541541Y-176914500D01*
X64541541Y-176914500D02*
X64612969Y-176843071D01*
X64612969Y-176843071D02*
X64612969Y-176985928D01*
X65612970Y-175485928D02*
X65755827Y-175485928D01*
X65755827Y-175485928D02*
X65898684Y-175557357D01*
X65898684Y-175557357D02*
X65970113Y-175628785D01*
X65970113Y-175628785D02*
X66041541Y-175771642D01*
X66041541Y-175771642D02*
X66112970Y-176057357D01*
X66112970Y-176057357D02*
X66112970Y-176414500D01*
X66112970Y-176414500D02*
X66041541Y-176700214D01*
X66041541Y-176700214D02*
X65970113Y-176843071D01*
X65970113Y-176843071D02*
X65898684Y-176914500D01*
X65898684Y-176914500D02*
X65755827Y-176985928D01*
X65755827Y-176985928D02*
X65612970Y-176985928D01*
X65612970Y-176985928D02*
X65470113Y-176914500D01*
X65470113Y-176914500D02*
X65398684Y-176843071D01*
X65398684Y-176843071D02*
X65327255Y-176700214D01*
X65327255Y-176700214D02*
X65255827Y-176414500D01*
X65255827Y-176414500D02*
X65255827Y-176057357D01*
X65255827Y-176057357D02*
X65327255Y-175771642D01*
X65327255Y-175771642D02*
X65398684Y-175628785D01*
X65398684Y-175628785D02*
X65470113Y-175557357D01*
X65470113Y-175557357D02*
X65612970Y-175485928D01*
X66755826Y-176843071D02*
X66827255Y-176914500D01*
X66827255Y-176914500D02*
X66755826Y-176985928D01*
X66755826Y-176985928D02*
X66684398Y-176914500D01*
X66684398Y-176914500D02*
X66755826Y-176843071D01*
X66755826Y-176843071D02*
X66755826Y-176985928D01*
X67398684Y-175628785D02*
X67470112Y-175557357D01*
X67470112Y-175557357D02*
X67612970Y-175485928D01*
X67612970Y-175485928D02*
X67970112Y-175485928D01*
X67970112Y-175485928D02*
X68112970Y-175557357D01*
X68112970Y-175557357D02*
X68184398Y-175628785D01*
X68184398Y-175628785D02*
X68255827Y-175771642D01*
X68255827Y-175771642D02*
X68255827Y-175914500D01*
X68255827Y-175914500D02*
X68184398Y-176128785D01*
X68184398Y-176128785D02*
X67327255Y-176985928D01*
X67327255Y-176985928D02*
X68255827Y-176985928D01*
X45300000Y-171899800D02*
X118811000Y-171897800D01*
D11*
X98211653Y-174178328D02*
X97711653Y-173464042D01*
X97354510Y-174178328D02*
X97354510Y-172678328D01*
X97354510Y-172678328D02*
X97925939Y-172678328D01*
X97925939Y-172678328D02*
X98068796Y-172749757D01*
X98068796Y-172749757D02*
X98140225Y-172821185D01*
X98140225Y-172821185D02*
X98211653Y-172964042D01*
X98211653Y-172964042D02*
X98211653Y-173178328D01*
X98211653Y-173178328D02*
X98140225Y-173321185D01*
X98140225Y-173321185D02*
X98068796Y-173392614D01*
X98068796Y-173392614D02*
X97925939Y-173464042D01*
X97925939Y-173464042D02*
X97354510Y-173464042D01*
X99425939Y-174106900D02*
X99283082Y-174178328D01*
X99283082Y-174178328D02*
X98997368Y-174178328D01*
X98997368Y-174178328D02*
X98854510Y-174106900D01*
X98854510Y-174106900D02*
X98783082Y-173964042D01*
X98783082Y-173964042D02*
X98783082Y-173392614D01*
X98783082Y-173392614D02*
X98854510Y-173249757D01*
X98854510Y-173249757D02*
X98997368Y-173178328D01*
X98997368Y-173178328D02*
X99283082Y-173178328D01*
X99283082Y-173178328D02*
X99425939Y-173249757D01*
X99425939Y-173249757D02*
X99497368Y-173392614D01*
X99497368Y-173392614D02*
X99497368Y-173535471D01*
X99497368Y-173535471D02*
X98783082Y-173678328D01*
X99997367Y-173178328D02*
X100354510Y-174178328D01*
X100354510Y-174178328D02*
X100711653Y-173178328D01*
X101283081Y-174035471D02*
X101354510Y-174106900D01*
X101354510Y-174106900D02*
X101283081Y-174178328D01*
X101283081Y-174178328D02*
X101211653Y-174106900D01*
X101211653Y-174106900D02*
X101283081Y-174035471D01*
X101283081Y-174035471D02*
X101283081Y-174178328D01*
X101283081Y-173249757D02*
X101354510Y-173321185D01*
X101354510Y-173321185D02*
X101283081Y-173392614D01*
X101283081Y-173392614D02*
X101211653Y-173321185D01*
X101211653Y-173321185D02*
X101283081Y-173249757D01*
X101283081Y-173249757D02*
X101283081Y-173392614D01*
X102997367Y-173178328D02*
X103354510Y-174178328D01*
X103354510Y-174178328D02*
X103711653Y-173178328D01*
X105068796Y-174178328D02*
X104211653Y-174178328D01*
X104640224Y-174178328D02*
X104640224Y-172678328D01*
X104640224Y-172678328D02*
X104497367Y-172892614D01*
X104497367Y-172892614D02*
X104354510Y-173035471D01*
X104354510Y-173035471D02*
X104211653Y-173106900D01*
X105711652Y-174035471D02*
X105783081Y-174106900D01*
X105783081Y-174106900D02*
X105711652Y-174178328D01*
X105711652Y-174178328D02*
X105640224Y-174106900D01*
X105640224Y-174106900D02*
X105711652Y-174035471D01*
X105711652Y-174035471D02*
X105711652Y-174178328D01*
X106711653Y-172678328D02*
X106854510Y-172678328D01*
X106854510Y-172678328D02*
X106997367Y-172749757D01*
X106997367Y-172749757D02*
X107068796Y-172821185D01*
X107068796Y-172821185D02*
X107140224Y-172964042D01*
X107140224Y-172964042D02*
X107211653Y-173249757D01*
X107211653Y-173249757D02*
X107211653Y-173606900D01*
X107211653Y-173606900D02*
X107140224Y-173892614D01*
X107140224Y-173892614D02*
X107068796Y-174035471D01*
X107068796Y-174035471D02*
X106997367Y-174106900D01*
X106997367Y-174106900D02*
X106854510Y-174178328D01*
X106854510Y-174178328D02*
X106711653Y-174178328D01*
X106711653Y-174178328D02*
X106568796Y-174106900D01*
X106568796Y-174106900D02*
X106497367Y-174035471D01*
X106497367Y-174035471D02*
X106425938Y-173892614D01*
X106425938Y-173892614D02*
X106354510Y-173606900D01*
X106354510Y-173606900D02*
X106354510Y-173249757D01*
X106354510Y-173249757D02*
X106425938Y-172964042D01*
X106425938Y-172964042D02*
X106497367Y-172821185D01*
X106497367Y-172821185D02*
X106568796Y-172749757D01*
X106568796Y-172749757D02*
X106711653Y-172678328D01*
D10*
X46684398Y-174114500D02*
X46898684Y-174185928D01*
X46898684Y-174185928D02*
X47255826Y-174185928D01*
X47255826Y-174185928D02*
X47398684Y-174114500D01*
X47398684Y-174114500D02*
X47470112Y-174043071D01*
X47470112Y-174043071D02*
X47541541Y-173900214D01*
X47541541Y-173900214D02*
X47541541Y-173757357D01*
X47541541Y-173757357D02*
X47470112Y-173614500D01*
X47470112Y-173614500D02*
X47398684Y-173543071D01*
X47398684Y-173543071D02*
X47255826Y-173471642D01*
X47255826Y-173471642D02*
X46970112Y-173400214D01*
X46970112Y-173400214D02*
X46827255Y-173328785D01*
X46827255Y-173328785D02*
X46755826Y-173257357D01*
X46755826Y-173257357D02*
X46684398Y-173114500D01*
X46684398Y-173114500D02*
X46684398Y-172971642D01*
X46684398Y-172971642D02*
X46755826Y-172828785D01*
X46755826Y-172828785D02*
X46827255Y-172757357D01*
X46827255Y-172757357D02*
X46970112Y-172685928D01*
X46970112Y-172685928D02*
X47327255Y-172685928D01*
X47327255Y-172685928D02*
X47541541Y-172757357D01*
X48184397Y-174185928D02*
X48184397Y-173185928D01*
X48184397Y-172685928D02*
X48112969Y-172757357D01*
X48112969Y-172757357D02*
X48184397Y-172828785D01*
X48184397Y-172828785D02*
X48255826Y-172757357D01*
X48255826Y-172757357D02*
X48184397Y-172685928D01*
X48184397Y-172685928D02*
X48184397Y-172828785D01*
X48755826Y-173185928D02*
X49541541Y-173185928D01*
X49541541Y-173185928D02*
X48755826Y-174185928D01*
X48755826Y-174185928D02*
X49541541Y-174185928D01*
X50684398Y-174114500D02*
X50541541Y-174185928D01*
X50541541Y-174185928D02*
X50255827Y-174185928D01*
X50255827Y-174185928D02*
X50112969Y-174114500D01*
X50112969Y-174114500D02*
X50041541Y-173971642D01*
X50041541Y-173971642D02*
X50041541Y-173400214D01*
X50041541Y-173400214D02*
X50112969Y-173257357D01*
X50112969Y-173257357D02*
X50255827Y-173185928D01*
X50255827Y-173185928D02*
X50541541Y-173185928D01*
X50541541Y-173185928D02*
X50684398Y-173257357D01*
X50684398Y-173257357D02*
X50755827Y-173400214D01*
X50755827Y-173400214D02*
X50755827Y-173543071D01*
X50755827Y-173543071D02*
X50041541Y-173685928D01*
X51398683Y-174043071D02*
X51470112Y-174114500D01*
X51470112Y-174114500D02*
X51398683Y-174185928D01*
X51398683Y-174185928D02*
X51327255Y-174114500D01*
X51327255Y-174114500D02*
X51398683Y-174043071D01*
X51398683Y-174043071D02*
X51398683Y-174185928D01*
X51398683Y-173257357D02*
X51470112Y-173328785D01*
X51470112Y-173328785D02*
X51398683Y-173400214D01*
X51398683Y-173400214D02*
X51327255Y-173328785D01*
X51327255Y-173328785D02*
X51398683Y-173257357D01*
X51398683Y-173257357D02*
X51398683Y-173400214D01*
X53255826Y-172685928D02*
X53255826Y-173900214D01*
X53255826Y-173900214D02*
X53327255Y-174043071D01*
X53327255Y-174043071D02*
X53398684Y-174114500D01*
X53398684Y-174114500D02*
X53541541Y-174185928D01*
X53541541Y-174185928D02*
X53827255Y-174185928D01*
X53827255Y-174185928D02*
X53970112Y-174114500D01*
X53970112Y-174114500D02*
X54041541Y-174043071D01*
X54041541Y-174043071D02*
X54112969Y-173900214D01*
X54112969Y-173900214D02*
X54112969Y-172685928D01*
X54755827Y-174114500D02*
X54898684Y-174185928D01*
X54898684Y-174185928D02*
X55184398Y-174185928D01*
X55184398Y-174185928D02*
X55327255Y-174114500D01*
X55327255Y-174114500D02*
X55398684Y-173971642D01*
X55398684Y-173971642D02*
X55398684Y-173900214D01*
X55398684Y-173900214D02*
X55327255Y-173757357D01*
X55327255Y-173757357D02*
X55184398Y-173685928D01*
X55184398Y-173685928D02*
X54970113Y-173685928D01*
X54970113Y-173685928D02*
X54827255Y-173614500D01*
X54827255Y-173614500D02*
X54755827Y-173471642D01*
X54755827Y-173471642D02*
X54755827Y-173400214D01*
X54755827Y-173400214D02*
X54827255Y-173257357D01*
X54827255Y-173257357D02*
X54970113Y-173185928D01*
X54970113Y-173185928D02*
X55184398Y-173185928D01*
X55184398Y-173185928D02*
X55327255Y-173257357D01*
X56612970Y-174114500D02*
X56470113Y-174185928D01*
X56470113Y-174185928D02*
X56184399Y-174185928D01*
X56184399Y-174185928D02*
X56041541Y-174114500D01*
X56041541Y-174114500D02*
X55970113Y-173971642D01*
X55970113Y-173971642D02*
X55970113Y-173400214D01*
X55970113Y-173400214D02*
X56041541Y-173257357D01*
X56041541Y-173257357D02*
X56184399Y-173185928D01*
X56184399Y-173185928D02*
X56470113Y-173185928D01*
X56470113Y-173185928D02*
X56612970Y-173257357D01*
X56612970Y-173257357D02*
X56684399Y-173400214D01*
X56684399Y-173400214D02*
X56684399Y-173543071D01*
X56684399Y-173543071D02*
X55970113Y-173685928D01*
X57327255Y-174185928D02*
X57327255Y-173185928D01*
X57327255Y-173471642D02*
X57398684Y-173328785D01*
X57398684Y-173328785D02*
X57470113Y-173257357D01*
X57470113Y-173257357D02*
X57612970Y-173185928D01*
X57612970Y-173185928D02*
X57755827Y-173185928D01*
X97255826Y-176986128D02*
X97255826Y-175486128D01*
X97255826Y-175486128D02*
X97827255Y-175486128D01*
X97827255Y-175486128D02*
X97970112Y-175557557D01*
X97970112Y-175557557D02*
X98041541Y-175628985D01*
X98041541Y-175628985D02*
X98112969Y-175771842D01*
X98112969Y-175771842D02*
X98112969Y-175986128D01*
X98112969Y-175986128D02*
X98041541Y-176128985D01*
X98041541Y-176128985D02*
X97970112Y-176200414D01*
X97970112Y-176200414D02*
X97827255Y-176271842D01*
X97827255Y-176271842D02*
X97255826Y-176271842D01*
X99398684Y-176986128D02*
X99398684Y-176200414D01*
X99398684Y-176200414D02*
X99327255Y-176057557D01*
X99327255Y-176057557D02*
X99184398Y-175986128D01*
X99184398Y-175986128D02*
X98898684Y-175986128D01*
X98898684Y-175986128D02*
X98755826Y-176057557D01*
X99398684Y-176914700D02*
X99255826Y-176986128D01*
X99255826Y-176986128D02*
X98898684Y-176986128D01*
X98898684Y-176986128D02*
X98755826Y-176914700D01*
X98755826Y-176914700D02*
X98684398Y-176771842D01*
X98684398Y-176771842D02*
X98684398Y-176628985D01*
X98684398Y-176628985D02*
X98755826Y-176486128D01*
X98755826Y-176486128D02*
X98898684Y-176414700D01*
X98898684Y-176414700D02*
X99255826Y-176414700D01*
X99255826Y-176414700D02*
X99398684Y-176343271D01*
X100755827Y-175986128D02*
X100755827Y-177200414D01*
X100755827Y-177200414D02*
X100684398Y-177343271D01*
X100684398Y-177343271D02*
X100612969Y-177414700D01*
X100612969Y-177414700D02*
X100470112Y-177486128D01*
X100470112Y-177486128D02*
X100255827Y-177486128D01*
X100255827Y-177486128D02*
X100112969Y-177414700D01*
X100755827Y-176914700D02*
X100612969Y-176986128D01*
X100612969Y-176986128D02*
X100327255Y-176986128D01*
X100327255Y-176986128D02*
X100184398Y-176914700D01*
X100184398Y-176914700D02*
X100112969Y-176843271D01*
X100112969Y-176843271D02*
X100041541Y-176700414D01*
X100041541Y-176700414D02*
X100041541Y-176271842D01*
X100041541Y-176271842D02*
X100112969Y-176128985D01*
X100112969Y-176128985D02*
X100184398Y-176057557D01*
X100184398Y-176057557D02*
X100327255Y-175986128D01*
X100327255Y-175986128D02*
X100612969Y-175986128D01*
X100612969Y-175986128D02*
X100755827Y-176057557D01*
X102041541Y-176914700D02*
X101898684Y-176986128D01*
X101898684Y-176986128D02*
X101612970Y-176986128D01*
X101612970Y-176986128D02*
X101470112Y-176914700D01*
X101470112Y-176914700D02*
X101398684Y-176771842D01*
X101398684Y-176771842D02*
X101398684Y-176200414D01*
X101398684Y-176200414D02*
X101470112Y-176057557D01*
X101470112Y-176057557D02*
X101612970Y-175986128D01*
X101612970Y-175986128D02*
X101898684Y-175986128D01*
X101898684Y-175986128D02*
X102041541Y-176057557D01*
X102041541Y-176057557D02*
X102112970Y-176200414D01*
X102112970Y-176200414D02*
X102112970Y-176343271D01*
X102112970Y-176343271D02*
X101398684Y-176486128D01*
X102755826Y-176843271D02*
X102827255Y-176914700D01*
X102827255Y-176914700D02*
X102755826Y-176986128D01*
X102755826Y-176986128D02*
X102684398Y-176914700D01*
X102684398Y-176914700D02*
X102755826Y-176843271D01*
X102755826Y-176843271D02*
X102755826Y-176986128D01*
X102755826Y-176057557D02*
X102827255Y-176128985D01*
X102827255Y-176128985D02*
X102755826Y-176200414D01*
X102755826Y-176200414D02*
X102684398Y-176128985D01*
X102684398Y-176128985D02*
X102755826Y-176057557D01*
X102755826Y-176057557D02*
X102755826Y-176200414D01*
X104470112Y-175486128D02*
X105398684Y-175486128D01*
X105398684Y-175486128D02*
X104898684Y-176057557D01*
X104898684Y-176057557D02*
X105112969Y-176057557D01*
X105112969Y-176057557D02*
X105255827Y-176128985D01*
X105255827Y-176128985D02*
X105327255Y-176200414D01*
X105327255Y-176200414D02*
X105398684Y-176343271D01*
X105398684Y-176343271D02*
X105398684Y-176700414D01*
X105398684Y-176700414D02*
X105327255Y-176843271D01*
X105327255Y-176843271D02*
X105255827Y-176914700D01*
X105255827Y-176914700D02*
X105112969Y-176986128D01*
X105112969Y-176986128D02*
X104684398Y-176986128D01*
X104684398Y-176986128D02*
X104541541Y-176914700D01*
X104541541Y-176914700D02*
X104470112Y-176843271D01*
X107112969Y-175414700D02*
X105827255Y-177343271D01*
X107470112Y-175486128D02*
X108470112Y-175486128D01*
X108470112Y-175486128D02*
X107827255Y-176986128D01*
X45300000Y-167899800D02*
X118811000Y-167897800D01*
D12*
X46991728Y-168604238D02*
X48134585Y-168604238D01*
X47313157Y-170604238D02*
X47563157Y-168604238D01*
X48551252Y-170604238D02*
X48717919Y-169270904D01*
X48801252Y-168604238D02*
X48694109Y-168699476D01*
X48694109Y-168699476D02*
X48777443Y-168794714D01*
X48777443Y-168794714D02*
X48884586Y-168699476D01*
X48884586Y-168699476D02*
X48801252Y-168604238D01*
X48801252Y-168604238D02*
X48777443Y-168794714D01*
X49384586Y-169270904D02*
X50146490Y-169270904D01*
X49753633Y-168604238D02*
X49539348Y-170318523D01*
X49539348Y-170318523D02*
X49610776Y-170509000D01*
X49610776Y-170509000D02*
X49789348Y-170604238D01*
X49789348Y-170604238D02*
X49979824Y-170604238D01*
X50932205Y-170604238D02*
X50753633Y-170509000D01*
X50753633Y-170509000D02*
X50682205Y-170318523D01*
X50682205Y-170318523D02*
X50896490Y-168604238D01*
X52467919Y-170509000D02*
X52265538Y-170604238D01*
X52265538Y-170604238D02*
X51884585Y-170604238D01*
X51884585Y-170604238D02*
X51706014Y-170509000D01*
X51706014Y-170509000D02*
X51634585Y-170318523D01*
X51634585Y-170318523D02*
X51729824Y-169556619D01*
X51729824Y-169556619D02*
X51848871Y-169366142D01*
X51848871Y-169366142D02*
X52051252Y-169270904D01*
X52051252Y-169270904D02*
X52432204Y-169270904D01*
X52432204Y-169270904D02*
X52610776Y-169366142D01*
X52610776Y-169366142D02*
X52682204Y-169556619D01*
X52682204Y-169556619D02*
X52658395Y-169747095D01*
X52658395Y-169747095D02*
X51682204Y-169937571D01*
X53432205Y-170413761D02*
X53515538Y-170509000D01*
X53515538Y-170509000D02*
X53408395Y-170604238D01*
X53408395Y-170604238D02*
X53325062Y-170509000D01*
X53325062Y-170509000D02*
X53432205Y-170413761D01*
X53432205Y-170413761D02*
X53408395Y-170604238D01*
X53563157Y-169366142D02*
X53646490Y-169461380D01*
X53646490Y-169461380D02*
X53539348Y-169556619D01*
X53539348Y-169556619D02*
X53456014Y-169461380D01*
X53456014Y-169461380D02*
X53563157Y-169366142D01*
X53563157Y-169366142D02*
X53539348Y-169556619D01*
X56682205Y-169556619D02*
X56015539Y-169556619D01*
X55884586Y-170604238D02*
X56134586Y-168604238D01*
X56134586Y-168604238D02*
X57086967Y-168604238D01*
X57598872Y-170604238D02*
X57848872Y-168604238D01*
X59694110Y-170604238D02*
X59146491Y-169651857D01*
X58551253Y-170604238D02*
X58801253Y-168604238D01*
X58801253Y-168604238D02*
X59563158Y-168604238D01*
X59563158Y-168604238D02*
X59741729Y-168699476D01*
X59741729Y-168699476D02*
X59825063Y-168794714D01*
X59825063Y-168794714D02*
X59896491Y-168985190D01*
X59896491Y-168985190D02*
X59860777Y-169270904D01*
X59860777Y-169270904D02*
X59741729Y-169461380D01*
X59741729Y-169461380D02*
X59634587Y-169556619D01*
X59634587Y-169556619D02*
X59432206Y-169651857D01*
X59432206Y-169651857D02*
X58670301Y-169651857D01*
X60610777Y-168604238D02*
X61848872Y-168604238D01*
X61848872Y-168604238D02*
X61086968Y-169366142D01*
X61086968Y-169366142D02*
X61372682Y-169366142D01*
X61372682Y-169366142D02*
X61551253Y-169461380D01*
X61551253Y-169461380D02*
X61634587Y-169556619D01*
X61634587Y-169556619D02*
X61706015Y-169747095D01*
X61706015Y-169747095D02*
X61646491Y-170223285D01*
X61646491Y-170223285D02*
X61527444Y-170413761D01*
X61527444Y-170413761D02*
X61420301Y-170509000D01*
X61420301Y-170509000D02*
X61217920Y-170604238D01*
X61217920Y-170604238D02*
X60646491Y-170604238D01*
X60646491Y-170604238D02*
X60467920Y-170509000D01*
X60467920Y-170509000D02*
X60384587Y-170413761D01*
X63253634Y-169556619D02*
X62586968Y-169556619D01*
X62456015Y-170604238D02*
X62706015Y-168604238D01*
X62706015Y-168604238D02*
X63658396Y-168604238D01*
X65122682Y-170604238D02*
X64170301Y-170604238D01*
X64170301Y-170604238D02*
X64420301Y-168604238D01*
X66289349Y-169651857D02*
X66170302Y-170604238D01*
X65753635Y-168604238D02*
X66289349Y-169651857D01*
X66289349Y-169651857D02*
X67086968Y-168604238D01*
D10*
X47255826Y-166000214D02*
X46755826Y-166000214D01*
X46755826Y-166785928D02*
X46755826Y-165285928D01*
X46755826Y-165285928D02*
X47470112Y-165285928D01*
X48041540Y-166785928D02*
X48041540Y-165785928D01*
X48041540Y-165285928D02*
X47970112Y-165357357D01*
X47970112Y-165357357D02*
X48041540Y-165428785D01*
X48041540Y-165428785D02*
X48112969Y-165357357D01*
X48112969Y-165357357D02*
X48041540Y-165285928D01*
X48041540Y-165285928D02*
X48041540Y-165428785D01*
X48970112Y-166785928D02*
X48827255Y-166714500D01*
X48827255Y-166714500D02*
X48755826Y-166571642D01*
X48755826Y-166571642D02*
X48755826Y-165285928D01*
X50112969Y-166714500D02*
X49970112Y-166785928D01*
X49970112Y-166785928D02*
X49684398Y-166785928D01*
X49684398Y-166785928D02*
X49541540Y-166714500D01*
X49541540Y-166714500D02*
X49470112Y-166571642D01*
X49470112Y-166571642D02*
X49470112Y-166000214D01*
X49470112Y-166000214D02*
X49541540Y-165857357D01*
X49541540Y-165857357D02*
X49684398Y-165785928D01*
X49684398Y-165785928D02*
X49970112Y-165785928D01*
X49970112Y-165785928D02*
X50112969Y-165857357D01*
X50112969Y-165857357D02*
X50184398Y-166000214D01*
X50184398Y-166000214D02*
X50184398Y-166143071D01*
X50184398Y-166143071D02*
X49470112Y-166285928D01*
X50827254Y-166643071D02*
X50898683Y-166714500D01*
X50898683Y-166714500D02*
X50827254Y-166785928D01*
X50827254Y-166785928D02*
X50755826Y-166714500D01*
X50755826Y-166714500D02*
X50827254Y-166643071D01*
X50827254Y-166643071D02*
X50827254Y-166785928D01*
X50827254Y-165857357D02*
X50898683Y-165928785D01*
X50898683Y-165928785D02*
X50827254Y-166000214D01*
X50827254Y-166000214D02*
X50755826Y-165928785D01*
X50755826Y-165928785D02*
X50827254Y-165857357D01*
X50827254Y-165857357D02*
X50827254Y-166000214D01*
X52470112Y-165785928D02*
X53041540Y-165785928D01*
X52684397Y-166785928D02*
X52684397Y-165500214D01*
X52684397Y-165500214D02*
X52755826Y-165357357D01*
X52755826Y-165357357D02*
X52898683Y-165285928D01*
X52898683Y-165285928D02*
X53041540Y-165285928D01*
X53541540Y-166785928D02*
X53541540Y-165785928D01*
X53541540Y-165285928D02*
X53470112Y-165357357D01*
X53470112Y-165357357D02*
X53541540Y-165428785D01*
X53541540Y-165428785D02*
X53612969Y-165357357D01*
X53612969Y-165357357D02*
X53541540Y-165285928D01*
X53541540Y-165285928D02*
X53541540Y-165428785D01*
X54255826Y-166785928D02*
X54255826Y-165785928D01*
X54255826Y-166071642D02*
X54327255Y-165928785D01*
X54327255Y-165928785D02*
X54398684Y-165857357D01*
X54398684Y-165857357D02*
X54541541Y-165785928D01*
X54541541Y-165785928D02*
X54684398Y-165785928D01*
X55041540Y-165285928D02*
X55970112Y-165285928D01*
X55970112Y-165285928D02*
X55470112Y-165857357D01*
X55470112Y-165857357D02*
X55684397Y-165857357D01*
X55684397Y-165857357D02*
X55827255Y-165928785D01*
X55827255Y-165928785D02*
X55898683Y-166000214D01*
X55898683Y-166000214D02*
X55970112Y-166143071D01*
X55970112Y-166143071D02*
X55970112Y-166500214D01*
X55970112Y-166500214D02*
X55898683Y-166643071D01*
X55898683Y-166643071D02*
X55827255Y-166714500D01*
X55827255Y-166714500D02*
X55684397Y-166785928D01*
X55684397Y-166785928D02*
X55255826Y-166785928D01*
X55255826Y-166785928D02*
X55112969Y-166714500D01*
X55112969Y-166714500D02*
X55041540Y-166643071D01*
X56398683Y-165785928D02*
X56970111Y-165785928D01*
X56612968Y-166785928D02*
X56612968Y-165500214D01*
X56612968Y-165500214D02*
X56684397Y-165357357D01*
X56684397Y-165357357D02*
X56827254Y-165285928D01*
X56827254Y-165285928D02*
X56970111Y-165285928D01*
X57684397Y-166785928D02*
X57541540Y-166714500D01*
X57541540Y-166714500D02*
X57470111Y-166571642D01*
X57470111Y-166571642D02*
X57470111Y-165285928D01*
X58112968Y-165785928D02*
X58470111Y-166785928D01*
X58827254Y-165785928D02*
X58470111Y-166785928D01*
X58470111Y-166785928D02*
X58327254Y-167143071D01*
X58327254Y-167143071D02*
X58255825Y-167214500D01*
X58255825Y-167214500D02*
X58112968Y-167285928D01*
X59041540Y-166928785D02*
X60184397Y-166928785D01*
X60755825Y-166785928D02*
X60612968Y-166714500D01*
X60612968Y-166714500D02*
X60541539Y-166643071D01*
X60541539Y-166643071D02*
X60470111Y-166500214D01*
X60470111Y-166500214D02*
X60470111Y-166071642D01*
X60470111Y-166071642D02*
X60541539Y-165928785D01*
X60541539Y-165928785D02*
X60612968Y-165857357D01*
X60612968Y-165857357D02*
X60755825Y-165785928D01*
X60755825Y-165785928D02*
X60970111Y-165785928D01*
X60970111Y-165785928D02*
X61112968Y-165857357D01*
X61112968Y-165857357D02*
X61184397Y-165928785D01*
X61184397Y-165928785D02*
X61255825Y-166071642D01*
X61255825Y-166071642D02*
X61255825Y-166500214D01*
X61255825Y-166500214D02*
X61184397Y-166643071D01*
X61184397Y-166643071D02*
X61112968Y-166714500D01*
X61112968Y-166714500D02*
X60970111Y-166785928D01*
X60970111Y-166785928D02*
X60755825Y-166785928D01*
X61898682Y-165785928D02*
X61898682Y-166785928D01*
X61898682Y-165928785D02*
X61970111Y-165857357D01*
X61970111Y-165857357D02*
X62112968Y-165785928D01*
X62112968Y-165785928D02*
X62327254Y-165785928D01*
X62327254Y-165785928D02*
X62470111Y-165857357D01*
X62470111Y-165857357D02*
X62541540Y-166000214D01*
X62541540Y-166000214D02*
X62541540Y-166785928D01*
X63827254Y-166714500D02*
X63684397Y-166785928D01*
X63684397Y-166785928D02*
X63398683Y-166785928D01*
X63398683Y-166785928D02*
X63255825Y-166714500D01*
X63255825Y-166714500D02*
X63184397Y-166571642D01*
X63184397Y-166571642D02*
X63184397Y-166000214D01*
X63184397Y-166000214D02*
X63255825Y-165857357D01*
X63255825Y-165857357D02*
X63398683Y-165785928D01*
X63398683Y-165785928D02*
X63684397Y-165785928D01*
X63684397Y-165785928D02*
X63827254Y-165857357D01*
X63827254Y-165857357D02*
X63898683Y-166000214D01*
X63898683Y-166000214D02*
X63898683Y-166143071D01*
X63898683Y-166143071D02*
X63184397Y-166285928D01*
X64184397Y-166928785D02*
X65327254Y-166928785D01*
X65612968Y-166714500D02*
X65755825Y-166785928D01*
X65755825Y-166785928D02*
X66041539Y-166785928D01*
X66041539Y-166785928D02*
X66184396Y-166714500D01*
X66184396Y-166714500D02*
X66255825Y-166571642D01*
X66255825Y-166571642D02*
X66255825Y-166500214D01*
X66255825Y-166500214D02*
X66184396Y-166357357D01*
X66184396Y-166357357D02*
X66041539Y-166285928D01*
X66041539Y-166285928D02*
X65827254Y-166285928D01*
X65827254Y-166285928D02*
X65684396Y-166214500D01*
X65684396Y-166214500D02*
X65612968Y-166071642D01*
X65612968Y-166071642D02*
X65612968Y-166000214D01*
X65612968Y-166000214D02*
X65684396Y-165857357D01*
X65684396Y-165857357D02*
X65827254Y-165785928D01*
X65827254Y-165785928D02*
X66041539Y-165785928D01*
X66041539Y-165785928D02*
X66184396Y-165857357D01*
X66898682Y-166785928D02*
X66898682Y-165785928D01*
X66898682Y-165285928D02*
X66827254Y-165357357D01*
X66827254Y-165357357D02*
X66898682Y-165428785D01*
X66898682Y-165428785D02*
X66970111Y-165357357D01*
X66970111Y-165357357D02*
X66898682Y-165285928D01*
X66898682Y-165285928D02*
X66898682Y-165428785D01*
X68255826Y-166785928D02*
X68255826Y-165285928D01*
X68255826Y-166714500D02*
X68112968Y-166785928D01*
X68112968Y-166785928D02*
X67827254Y-166785928D01*
X67827254Y-166785928D02*
X67684397Y-166714500D01*
X67684397Y-166714500D02*
X67612968Y-166643071D01*
X67612968Y-166643071D02*
X67541540Y-166500214D01*
X67541540Y-166500214D02*
X67541540Y-166071642D01*
X67541540Y-166071642D02*
X67612968Y-165928785D01*
X67612968Y-165928785D02*
X67684397Y-165857357D01*
X67684397Y-165857357D02*
X67827254Y-165785928D01*
X67827254Y-165785928D02*
X68112968Y-165785928D01*
X68112968Y-165785928D02*
X68255826Y-165857357D01*
X69541540Y-166714500D02*
X69398683Y-166785928D01*
X69398683Y-166785928D02*
X69112969Y-166785928D01*
X69112969Y-166785928D02*
X68970111Y-166714500D01*
X68970111Y-166714500D02*
X68898683Y-166571642D01*
X68898683Y-166571642D02*
X68898683Y-166000214D01*
X68898683Y-166000214D02*
X68970111Y-165857357D01*
X68970111Y-165857357D02*
X69112969Y-165785928D01*
X69112969Y-165785928D02*
X69398683Y-165785928D01*
X69398683Y-165785928D02*
X69541540Y-165857357D01*
X69541540Y-165857357D02*
X69612969Y-166000214D01*
X69612969Y-166000214D02*
X69612969Y-166143071D01*
X69612969Y-166143071D02*
X68898683Y-166285928D01*
X70255825Y-166643071D02*
X70327254Y-166714500D01*
X70327254Y-166714500D02*
X70255825Y-166785928D01*
X70255825Y-166785928D02*
X70184397Y-166714500D01*
X70184397Y-166714500D02*
X70255825Y-166643071D01*
X70255825Y-166643071D02*
X70255825Y-166785928D01*
X70970111Y-166785928D02*
X70970111Y-165285928D01*
X71112969Y-166214500D02*
X71541540Y-166785928D01*
X71541540Y-165785928D02*
X70970111Y-166357357D01*
X72184397Y-166785928D02*
X72184397Y-165785928D01*
X72184397Y-165285928D02*
X72112969Y-165357357D01*
X72112969Y-165357357D02*
X72184397Y-165428785D01*
X72184397Y-165428785D02*
X72255826Y-165357357D01*
X72255826Y-165357357D02*
X72184397Y-165285928D01*
X72184397Y-165285928D02*
X72184397Y-165428785D01*
X73541541Y-166714500D02*
X73398683Y-166785928D01*
X73398683Y-166785928D02*
X73112969Y-166785928D01*
X73112969Y-166785928D02*
X72970112Y-166714500D01*
X72970112Y-166714500D02*
X72898683Y-166643071D01*
X72898683Y-166643071D02*
X72827255Y-166500214D01*
X72827255Y-166500214D02*
X72827255Y-166071642D01*
X72827255Y-166071642D02*
X72898683Y-165928785D01*
X72898683Y-165928785D02*
X72970112Y-165857357D01*
X72970112Y-165857357D02*
X73112969Y-165785928D01*
X73112969Y-165785928D02*
X73398683Y-165785928D01*
X73398683Y-165785928D02*
X73541541Y-165857357D01*
X74827255Y-166785928D02*
X74827255Y-166000214D01*
X74827255Y-166000214D02*
X74755826Y-165857357D01*
X74755826Y-165857357D02*
X74612969Y-165785928D01*
X74612969Y-165785928D02*
X74327255Y-165785928D01*
X74327255Y-165785928D02*
X74184397Y-165857357D01*
X74827255Y-166714500D02*
X74684397Y-166785928D01*
X74684397Y-166785928D02*
X74327255Y-166785928D01*
X74327255Y-166785928D02*
X74184397Y-166714500D01*
X74184397Y-166714500D02*
X74112969Y-166571642D01*
X74112969Y-166571642D02*
X74112969Y-166428785D01*
X74112969Y-166428785D02*
X74184397Y-166285928D01*
X74184397Y-166285928D02*
X74327255Y-166214500D01*
X74327255Y-166214500D02*
X74684397Y-166214500D01*
X74684397Y-166214500D02*
X74827255Y-166143071D01*
X76184398Y-166785928D02*
X76184398Y-165285928D01*
X76184398Y-166714500D02*
X76041540Y-166785928D01*
X76041540Y-166785928D02*
X75755826Y-166785928D01*
X75755826Y-166785928D02*
X75612969Y-166714500D01*
X75612969Y-166714500D02*
X75541540Y-166643071D01*
X75541540Y-166643071D02*
X75470112Y-166500214D01*
X75470112Y-166500214D02*
X75470112Y-166071642D01*
X75470112Y-166071642D02*
X75541540Y-165928785D01*
X75541540Y-165928785D02*
X75612969Y-165857357D01*
X75612969Y-165857357D02*
X75755826Y-165785928D01*
X75755826Y-165785928D02*
X76041540Y-165785928D01*
X76041540Y-165785928D02*
X76184398Y-165857357D01*
X76541541Y-166928785D02*
X77684398Y-166928785D01*
X78041540Y-165785928D02*
X78041540Y-167285928D01*
X78041540Y-165857357D02*
X78184398Y-165785928D01*
X78184398Y-165785928D02*
X78470112Y-165785928D01*
X78470112Y-165785928D02*
X78612969Y-165857357D01*
X78612969Y-165857357D02*
X78684398Y-165928785D01*
X78684398Y-165928785D02*
X78755826Y-166071642D01*
X78755826Y-166071642D02*
X78755826Y-166500214D01*
X78755826Y-166500214D02*
X78684398Y-166643071D01*
X78684398Y-166643071D02*
X78612969Y-166714500D01*
X78612969Y-166714500D02*
X78470112Y-166785928D01*
X78470112Y-166785928D02*
X78184398Y-166785928D01*
X78184398Y-166785928D02*
X78041540Y-166714500D01*
X80041541Y-166714500D02*
X79898683Y-166785928D01*
X79898683Y-166785928D02*
X79612969Y-166785928D01*
X79612969Y-166785928D02*
X79470112Y-166714500D01*
X79470112Y-166714500D02*
X79398683Y-166643071D01*
X79398683Y-166643071D02*
X79327255Y-166500214D01*
X79327255Y-166500214D02*
X79327255Y-166071642D01*
X79327255Y-166071642D02*
X79398683Y-165928785D01*
X79398683Y-165928785D02*
X79470112Y-165857357D01*
X79470112Y-165857357D02*
X79612969Y-165785928D01*
X79612969Y-165785928D02*
X79898683Y-165785928D01*
X79898683Y-165785928D02*
X80041541Y-165857357D01*
X80684397Y-166785928D02*
X80684397Y-165285928D01*
X80684397Y-165857357D02*
X80827255Y-165785928D01*
X80827255Y-165785928D02*
X81112969Y-165785928D01*
X81112969Y-165785928D02*
X81255826Y-165857357D01*
X81255826Y-165857357D02*
X81327255Y-165928785D01*
X81327255Y-165928785D02*
X81398683Y-166071642D01*
X81398683Y-166071642D02*
X81398683Y-166500214D01*
X81398683Y-166500214D02*
X81327255Y-166643071D01*
X81327255Y-166643071D02*
X81255826Y-166714500D01*
X81255826Y-166714500D02*
X81112969Y-166785928D01*
X81112969Y-166785928D02*
X80827255Y-166785928D01*
X80827255Y-166785928D02*
X80684397Y-166714500D01*
X45300000Y-163899800D02*
X118811000Y-163897800D01*
X65300000Y-171899800D02*
X65300000Y-174899800D01*
X94800000Y-171900000D02*
X94800000Y-178400000D01*
X45311000Y-178397800D02*
X45311000Y-156897800D01*
G36*
X38222000Y-162821800D02*
G01*
X38686000Y-162870800D01*
X39086000Y-162943800D01*
X39190000Y-162970800D01*
X39538000Y-163084800D01*
X39899000Y-163227800D01*
X40250000Y-163388800D01*
X40567000Y-163555800D01*
X40826000Y-163715800D01*
X41003000Y-163857800D01*
X41051000Y-163914800D01*
X41072000Y-164010800D01*
X41010000Y-164134800D01*
X40860000Y-164294800D01*
X40611000Y-164500800D01*
X40518000Y-164571800D01*
X40074000Y-164872800D01*
X39540000Y-165176800D01*
X38949000Y-165469800D01*
X38334000Y-165735800D01*
X37727000Y-165959800D01*
X37453000Y-166045800D01*
X37042000Y-166171800D01*
X36750000Y-166271800D01*
X36576000Y-166345800D01*
X36520000Y-166392800D01*
X36582000Y-166412800D01*
X36763000Y-166403800D01*
X37062000Y-166366800D01*
X37367000Y-166319800D01*
X38472000Y-166088800D01*
X39494000Y-165770800D01*
X40430000Y-165366800D01*
X41280000Y-164877800D01*
X42042000Y-164304800D01*
X42163000Y-164198800D01*
X42341000Y-164051800D01*
X42492000Y-163949800D01*
X42588000Y-163910800D01*
X42598000Y-163912800D01*
X42642000Y-163982800D01*
X42700000Y-164152800D01*
X42766000Y-164401800D01*
X42836000Y-164706800D01*
X42904000Y-165047800D01*
X42965000Y-165401800D01*
X42969000Y-165426800D01*
X43004000Y-165697800D01*
X43041000Y-166059800D01*
X43079000Y-166498800D01*
X43118000Y-166998800D01*
X43156000Y-167544800D01*
X43193000Y-168121800D01*
X43227000Y-168713800D01*
X43259000Y-169305800D01*
X43286000Y-169882800D01*
X43310000Y-170428800D01*
X43327000Y-170929800D01*
X43339000Y-171368800D01*
X43343000Y-171730800D01*
X43340000Y-172001800D01*
X43328000Y-172163800D01*
X43297000Y-172299800D01*
X43235000Y-172342800D01*
X43105000Y-172325800D01*
X42691000Y-172177800D01*
X42330000Y-171926800D01*
X42030000Y-171583800D01*
X41800000Y-171158800D01*
X41648000Y-170663800D01*
X41598000Y-170341800D01*
X41545000Y-169966800D01*
X41469000Y-169685800D01*
X41359000Y-169467800D01*
X41203000Y-169284800D01*
X41185000Y-169267800D01*
X41081000Y-169191800D01*
X40890000Y-169068800D01*
X40634000Y-168911800D01*
X40332000Y-168731800D01*
X40006000Y-168542800D01*
X39676000Y-168353800D01*
X39363000Y-168179800D01*
X39088000Y-168029800D01*
X38871000Y-167917800D01*
X38734000Y-167854800D01*
X38716000Y-167848800D01*
X38568000Y-167805800D01*
X38607000Y-168392800D01*
X38637000Y-168740800D01*
X38685000Y-169014800D01*
X38767000Y-169234800D01*
X38898000Y-169425800D01*
X39092000Y-169607800D01*
X39365000Y-169802800D01*
X39723000Y-170028800D01*
X40056000Y-170234800D01*
X40300000Y-170392800D01*
X40473000Y-170515800D01*
X40593000Y-170616800D01*
X40676000Y-170709800D01*
X40730000Y-170788800D01*
X40771000Y-170886800D01*
X40840000Y-171090800D01*
X40933000Y-171385800D01*
X41047000Y-171760800D01*
X41176000Y-172200800D01*
X41318000Y-172692800D01*
X41468000Y-173223800D01*
X41561000Y-173556800D01*
X41719000Y-174125800D01*
X41873000Y-174682800D01*
X42020000Y-175210800D01*
X42153000Y-175692800D01*
X42270000Y-176112800D01*
X42365000Y-176455800D01*
X42434000Y-176703800D01*
X42456000Y-176779800D01*
X42529000Y-177045800D01*
X42588000Y-177267800D01*
X42626000Y-177417800D01*
X42637000Y-177470800D01*
X42603000Y-177511800D01*
X42497000Y-177473800D01*
X42313000Y-177351800D01*
X42227000Y-177288800D01*
X41402000Y-176659800D01*
X40617000Y-176059800D01*
X39878000Y-175491800D01*
X39189000Y-174959800D01*
X38556000Y-174467800D01*
X37983000Y-174020800D01*
X37477000Y-173620800D01*
X37041000Y-173273800D01*
X36681000Y-172982800D01*
X36402000Y-172751800D01*
X36210000Y-172585800D01*
X36109000Y-172486800D01*
X36096000Y-172468800D01*
X36062000Y-172397800D01*
X36041000Y-172325800D01*
X36033000Y-172233800D01*
X36040000Y-172107800D01*
X36066000Y-171930800D01*
X36111000Y-171685800D01*
X36177000Y-171357800D01*
X36267000Y-170929800D01*
X36292000Y-170812800D01*
X36360000Y-170480800D01*
X36401000Y-170244800D01*
X36418000Y-170078800D01*
X36412000Y-169959800D01*
X36387000Y-169864800D01*
X36379000Y-169843800D01*
X36248000Y-169667800D01*
X36018000Y-169499800D01*
X35713000Y-169350800D01*
X35357000Y-169229800D01*
X34974000Y-169145800D01*
X34588000Y-169108800D01*
X34520000Y-169107800D01*
X34314000Y-169114800D01*
X34179000Y-169131800D01*
X34140000Y-169156800D01*
X34143000Y-169159800D01*
X34219000Y-169202800D01*
X34385000Y-169280800D01*
X34617000Y-169383800D01*
X34892000Y-169500800D01*
X34921000Y-169512800D01*
X35232000Y-169642800D01*
X35445000Y-169745800D01*
X35574000Y-169843800D01*
X35633000Y-169961800D01*
X35635000Y-170123800D01*
X35593000Y-170352800D01*
X35537000Y-170600800D01*
X35430000Y-171080800D01*
X35153000Y-171041800D01*
X34745000Y-170981800D01*
X34330000Y-170917800D01*
X33930000Y-170852800D01*
X33564000Y-170790800D01*
X33252000Y-170733800D01*
X33013000Y-170687800D01*
X32868000Y-170653800D01*
X32842000Y-170644800D01*
X32710000Y-170533800D01*
X32576000Y-170324800D01*
X32453000Y-170042800D01*
X32348000Y-169713800D01*
X32274000Y-169361800D01*
X32260000Y-169261800D01*
X32223000Y-168761800D01*
X32225000Y-168210800D01*
X32262000Y-167656800D01*
X32333000Y-167144800D01*
X32392000Y-166869800D01*
X32643000Y-166126800D01*
X33000000Y-165433800D01*
X33452000Y-164801800D01*
X33988000Y-164238800D01*
X34600000Y-163754800D01*
X35276000Y-163356800D01*
X36008000Y-163055800D01*
X36784000Y-162859800D01*
X36888000Y-162842800D01*
X37279000Y-162805800D01*
X37739000Y-162799800D01*
X38222000Y-162821800D01*
G37*
D13*
X38222000Y-162821800D02*
X38686000Y-162870800D01*
X39086000Y-162943800D01*
X39190000Y-162970800D01*
X39538000Y-163084800D01*
X39899000Y-163227800D01*
X40250000Y-163388800D01*
X40567000Y-163555800D01*
X40826000Y-163715800D01*
X41003000Y-163857800D01*
X41051000Y-163914800D01*
X41072000Y-164010800D01*
X41010000Y-164134800D01*
X40860000Y-164294800D01*
X40611000Y-164500800D01*
X40518000Y-164571800D01*
X40074000Y-164872800D01*
X39540000Y-165176800D01*
X38949000Y-165469800D01*
X38334000Y-165735800D01*
X37727000Y-165959800D01*
X37453000Y-166045800D01*
X37042000Y-166171800D01*
X36750000Y-166271800D01*
X36576000Y-166345800D01*
X36520000Y-166392800D01*
X36582000Y-166412800D01*
X36763000Y-166403800D01*
X37062000Y-166366800D01*
X37367000Y-166319800D01*
X38472000Y-166088800D01*
X39494000Y-165770800D01*
X40430000Y-165366800D01*
X41280000Y-164877800D01*
X42042000Y-164304800D01*
X42163000Y-164198800D01*
X42341000Y-164051800D01*
X42492000Y-163949800D01*
X42588000Y-163910800D01*
X42598000Y-163912800D01*
X42642000Y-163982800D01*
X42700000Y-164152800D01*
X42766000Y-164401800D01*
X42836000Y-164706800D01*
X42904000Y-165047800D01*
X42965000Y-165401800D01*
X42969000Y-165426800D01*
X43004000Y-165697800D01*
X43041000Y-166059800D01*
X43079000Y-166498800D01*
X43118000Y-166998800D01*
X43156000Y-167544800D01*
X43193000Y-168121800D01*
X43227000Y-168713800D01*
X43259000Y-169305800D01*
X43286000Y-169882800D01*
X43310000Y-170428800D01*
X43327000Y-170929800D01*
X43339000Y-171368800D01*
X43343000Y-171730800D01*
X43340000Y-172001800D01*
X43328000Y-172163800D01*
X43297000Y-172299800D01*
X43235000Y-172342800D01*
X43105000Y-172325800D01*
X42691000Y-172177800D01*
X42330000Y-171926800D01*
X42030000Y-171583800D01*
X41800000Y-171158800D01*
X41648000Y-170663800D01*
X41598000Y-170341800D01*
X41545000Y-169966800D01*
X41469000Y-169685800D01*
X41359000Y-169467800D01*
X41203000Y-169284800D01*
X41185000Y-169267800D01*
X41081000Y-169191800D01*
X40890000Y-169068800D01*
X40634000Y-168911800D01*
X40332000Y-168731800D01*
X40006000Y-168542800D01*
X39676000Y-168353800D01*
X39363000Y-168179800D01*
X39088000Y-168029800D01*
X38871000Y-167917800D01*
X38734000Y-167854800D01*
X38716000Y-167848800D01*
X38568000Y-167805800D01*
X38607000Y-168392800D01*
X38637000Y-168740800D01*
X38685000Y-169014800D01*
X38767000Y-169234800D01*
X38898000Y-169425800D01*
X39092000Y-169607800D01*
X39365000Y-169802800D01*
X39723000Y-170028800D01*
X40056000Y-170234800D01*
X40300000Y-170392800D01*
X40473000Y-170515800D01*
X40593000Y-170616800D01*
X40676000Y-170709800D01*
X40730000Y-170788800D01*
X40771000Y-170886800D01*
X40840000Y-171090800D01*
X40933000Y-171385800D01*
X41047000Y-171760800D01*
X41176000Y-172200800D01*
X41318000Y-172692800D01*
X41468000Y-173223800D01*
X41561000Y-173556800D01*
X41719000Y-174125800D01*
X41873000Y-174682800D01*
X42020000Y-175210800D01*
X42153000Y-175692800D01*
X42270000Y-176112800D01*
X42365000Y-176455800D01*
X42434000Y-176703800D01*
X42456000Y-176779800D01*
X42529000Y-177045800D01*
X42588000Y-177267800D01*
X42626000Y-177417800D01*
X42637000Y-177470800D01*
X42603000Y-177511800D01*
X42497000Y-177473800D01*
X42313000Y-177351800D01*
X42227000Y-177288800D01*
X41402000Y-176659800D01*
X40617000Y-176059800D01*
X39878000Y-175491800D01*
X39189000Y-174959800D01*
X38556000Y-174467800D01*
X37983000Y-174020800D01*
X37477000Y-173620800D01*
X37041000Y-173273800D01*
X36681000Y-172982800D01*
X36402000Y-172751800D01*
X36210000Y-172585800D01*
X36109000Y-172486800D01*
X36096000Y-172468800D01*
X36062000Y-172397800D01*
X36041000Y-172325800D01*
X36033000Y-172233800D01*
X36040000Y-172107800D01*
X36066000Y-171930800D01*
X36111000Y-171685800D01*
X36177000Y-171357800D01*
X36267000Y-170929800D01*
X36292000Y-170812800D01*
X36360000Y-170480800D01*
X36401000Y-170244800D01*
X36418000Y-170078800D01*
X36412000Y-169959800D01*
X36387000Y-169864800D01*
X36379000Y-169843800D01*
X36248000Y-169667800D01*
X36018000Y-169499800D01*
X35713000Y-169350800D01*
X35357000Y-169229800D01*
X34974000Y-169145800D01*
X34588000Y-169108800D01*
X34520000Y-169107800D01*
X34314000Y-169114800D01*
X34179000Y-169131800D01*
X34140000Y-169156800D01*
X34143000Y-169159800D01*
X34219000Y-169202800D01*
X34385000Y-169280800D01*
X34617000Y-169383800D01*
X34892000Y-169500800D01*
X34921000Y-169512800D01*
X35232000Y-169642800D01*
X35445000Y-169745800D01*
X35574000Y-169843800D01*
X35633000Y-169961800D01*
X35635000Y-170123800D01*
X35593000Y-170352800D01*
X35537000Y-170600800D01*
X35430000Y-171080800D01*
X35153000Y-171041800D01*
X34745000Y-170981800D01*
X34330000Y-170917800D01*
X33930000Y-170852800D01*
X33564000Y-170790800D01*
X33252000Y-170733800D01*
X33013000Y-170687800D01*
X32868000Y-170653800D01*
X32842000Y-170644800D01*
X32710000Y-170533800D01*
X32576000Y-170324800D01*
X32453000Y-170042800D01*
X32348000Y-169713800D01*
X32274000Y-169361800D01*
X32260000Y-169261800D01*
X32223000Y-168761800D01*
X32225000Y-168210800D01*
X32262000Y-167656800D01*
X32333000Y-167144800D01*
X32392000Y-166869800D01*
X32643000Y-166126800D01*
X33000000Y-165433800D01*
X33452000Y-164801800D01*
X33988000Y-164238800D01*
X34600000Y-163754800D01*
X35276000Y-163356800D01*
X36008000Y-163055800D01*
X36784000Y-162859800D01*
X36888000Y-162842800D01*
X37279000Y-162805800D01*
X37739000Y-162799800D01*
X38222000Y-162821800D01*
G36*
X33716000Y-171411800D02*
G01*
X34086000Y-171442800D01*
X34443000Y-171488800D01*
X34745000Y-171545800D01*
X34895000Y-171587800D01*
X35017000Y-171635800D01*
X35088000Y-171692800D01*
X35124000Y-171794800D01*
X35145000Y-171973800D01*
X35152000Y-172061800D01*
X35184000Y-172315800D01*
X35248000Y-172511800D01*
X35367000Y-172711800D01*
X35409000Y-172771799D01*
X35530000Y-172952800D01*
X35584000Y-173079800D01*
X35561000Y-173159800D01*
X35450000Y-173197800D01*
X35243000Y-173200800D01*
X34929000Y-173173800D01*
X34777000Y-173156800D01*
X34113000Y-173112800D01*
X33378000Y-173123800D01*
X32608000Y-173187800D01*
X32437000Y-173209800D01*
X32084000Y-173255800D01*
X32084000Y-173018800D01*
X32099000Y-172850800D01*
X32137000Y-172606800D01*
X32192000Y-172330800D01*
X32216000Y-172226800D01*
X32303000Y-171909800D01*
X32402000Y-171692800D01*
X32538000Y-171553800D01*
X32734000Y-171470800D01*
X33014000Y-171420800D01*
X33099000Y-171410800D01*
X33373000Y-171399800D01*
X33716000Y-171411800D01*
G37*
X33716000Y-171411800D02*
X34086000Y-171442800D01*
X34443000Y-171488800D01*
X34745000Y-171545800D01*
X34895000Y-171587800D01*
X35017000Y-171635800D01*
X35088000Y-171692800D01*
X35124000Y-171794800D01*
X35145000Y-171973800D01*
X35152000Y-172061800D01*
X35184000Y-172315800D01*
X35248000Y-172511800D01*
X35367000Y-172711800D01*
X35409000Y-172771799D01*
X35530000Y-172952800D01*
X35584000Y-173079800D01*
X35561000Y-173159800D01*
X35450000Y-173197800D01*
X35243000Y-173200800D01*
X34929000Y-173173800D01*
X34777000Y-173156800D01*
X34113000Y-173112800D01*
X33378000Y-173123800D01*
X32608000Y-173187800D01*
X32437000Y-173209800D01*
X32084000Y-173255800D01*
X32084000Y-173018800D01*
X32099000Y-172850800D01*
X32137000Y-172606800D01*
X32192000Y-172330800D01*
X32216000Y-172226800D01*
X32303000Y-171909800D01*
X32402000Y-171692800D01*
X32538000Y-171553800D01*
X32734000Y-171470800D01*
X33014000Y-171420800D01*
X33099000Y-171410800D01*
X33373000Y-171399800D01*
X33716000Y-171411800D01*
G36*
X41289000Y-157928800D02*
G01*
X41717000Y-157971800D01*
X42169000Y-158033800D01*
X42593000Y-158105800D01*
X42971000Y-158184800D01*
X43283000Y-158265800D01*
X43510000Y-158343800D01*
X43626000Y-158408800D01*
X43668000Y-158457800D01*
X43672000Y-158516800D01*
X43631000Y-158605800D01*
X43533000Y-158744800D01*
X43368000Y-158952800D01*
X43326000Y-159004800D01*
X42852000Y-159638800D01*
X42406000Y-160325800D01*
X42006000Y-161033800D01*
X41672000Y-161728800D01*
X41464000Y-162254800D01*
X41375000Y-162485800D01*
X41302000Y-162610800D01*
X41238000Y-162644800D01*
X41226000Y-162642800D01*
X41133000Y-162607800D01*
X40955000Y-162536800D01*
X40721000Y-162441800D01*
X40541000Y-162367800D01*
X39892000Y-162130800D01*
X39264000Y-161971800D01*
X38614000Y-161881800D01*
X37898000Y-161852800D01*
X37882000Y-161852800D01*
X37467000Y-161856800D01*
X37135000Y-161874800D01*
X36845000Y-161908800D01*
X36558000Y-161963800D01*
X36446000Y-161989800D01*
X35564000Y-162261800D01*
X34746000Y-162635800D01*
X33998000Y-163106800D01*
X33325000Y-163670800D01*
X32734000Y-164323800D01*
X32228000Y-165060800D01*
X31931000Y-165619800D01*
X31694000Y-166178800D01*
X31518000Y-166737800D01*
X31396000Y-167329800D01*
X31320000Y-167987800D01*
X31295000Y-168402799D01*
X31256000Y-169261800D01*
X31122000Y-169046800D01*
X30999000Y-168801800D01*
X30872000Y-168473800D01*
X30754000Y-168098800D01*
X30657000Y-167715800D01*
X30606000Y-167447800D01*
X30573000Y-167108800D01*
X30562000Y-166685800D01*
X30572000Y-166219800D01*
X30600000Y-165745800D01*
X30647000Y-165302800D01*
X30699000Y-164978800D01*
X30949000Y-164037800D01*
X31313000Y-163139800D01*
X31788000Y-162287800D01*
X32371000Y-161488800D01*
X33061000Y-160747800D01*
X33080000Y-160729800D01*
X33929000Y-160001800D01*
X34840000Y-159378800D01*
X35808000Y-158860800D01*
X36826000Y-158451800D01*
X37888000Y-158151800D01*
X38990000Y-157963800D01*
X40126000Y-157888800D01*
X41289000Y-157928800D01*
G37*
X41289000Y-157928800D02*
X41717000Y-157971800D01*
X42169000Y-158033800D01*
X42593000Y-158105800D01*
X42971000Y-158184800D01*
X43283000Y-158265800D01*
X43510000Y-158343800D01*
X43626000Y-158408800D01*
X43668000Y-158457800D01*
X43672000Y-158516800D01*
X43631000Y-158605800D01*
X43533000Y-158744800D01*
X43368000Y-158952800D01*
X43326000Y-159004800D01*
X42852000Y-159638800D01*
X42406000Y-160325800D01*
X42006000Y-161033800D01*
X41672000Y-161728800D01*
X41464000Y-162254800D01*
X41375000Y-162485800D01*
X41302000Y-162610800D01*
X41238000Y-162644800D01*
X41226000Y-162642800D01*
X41133000Y-162607800D01*
X40955000Y-162536800D01*
X40721000Y-162441800D01*
X40541000Y-162367800D01*
X39892000Y-162130800D01*
X39264000Y-161971800D01*
X38614000Y-161881800D01*
X37898000Y-161852800D01*
X37882000Y-161852800D01*
X37467000Y-161856800D01*
X37135000Y-161874800D01*
X36845000Y-161908800D01*
X36558000Y-161963800D01*
X36446000Y-161989800D01*
X35564000Y-162261800D01*
X34746000Y-162635800D01*
X33998000Y-163106800D01*
X33325000Y-163670800D01*
X32734000Y-164323800D01*
X32228000Y-165060800D01*
X31931000Y-165619800D01*
X31694000Y-166178800D01*
X31518000Y-166737800D01*
X31396000Y-167329800D01*
X31320000Y-167987800D01*
X31295000Y-168402799D01*
X31256000Y-169261800D01*
X31122000Y-169046800D01*
X30999000Y-168801800D01*
X30872000Y-168473800D01*
X30754000Y-168098800D01*
X30657000Y-167715800D01*
X30606000Y-167447800D01*
X30573000Y-167108800D01*
X30562000Y-166685800D01*
X30572000Y-166219800D01*
X30600000Y-165745800D01*
X30647000Y-165302800D01*
X30699000Y-164978800D01*
X30949000Y-164037800D01*
X31313000Y-163139800D01*
X31788000Y-162287800D01*
X32371000Y-161488800D01*
X33061000Y-160747800D01*
X33080000Y-160729800D01*
X33929000Y-160001800D01*
X34840000Y-159378800D01*
X35808000Y-158860800D01*
X36826000Y-158451800D01*
X37888000Y-158151800D01*
X38990000Y-157963800D01*
X40126000Y-157888800D01*
X41289000Y-157928800D01*
X34650000Y-23575000D02*
G75*
G02*
X28550000Y-23575000I-3050000J0D01*
G01*
X28550000Y-23575000D02*
G75*
G02*
X34650000Y-23575000I3050000J0D01*
G01*
X70550000Y-140475000D02*
G75*
G02*
X64450000Y-140475000I-3050000J0D01*
G01*
X64450000Y-140475000D02*
G75*
G02*
X70550000Y-140475000I3050000J0D01*
G01*
X107150000Y-23575000D02*
G75*
G02*
X101050000Y-23575000I-3050000J0D01*
G01*
X101050000Y-23575000D02*
G75*
G02*
X107150000Y-23575000I3050000J0D01*
G01*
X40332455Y-132447419D02*
X40141979Y-132447419D01*
X40141979Y-132447419D02*
X40046741Y-132495038D01*
X40046741Y-132495038D02*
X39999122Y-132542657D01*
X39999122Y-132542657D02*
X39903884Y-132685514D01*
X39903884Y-132685514D02*
X39856265Y-132875990D01*
X39856265Y-132875990D02*
X39856265Y-133256942D01*
X39856265Y-133256942D02*
X39903884Y-133352180D01*
X39903884Y-133352180D02*
X39951503Y-133399800D01*
X39951503Y-133399800D02*
X40046741Y-133447419D01*
X40046741Y-133447419D02*
X40237217Y-133447419D01*
X40237217Y-133447419D02*
X40332455Y-133399800D01*
X40332455Y-133399800D02*
X40380074Y-133352180D01*
X40380074Y-133352180D02*
X40427693Y-133256942D01*
X40427693Y-133256942D02*
X40427693Y-133018847D01*
X40427693Y-133018847D02*
X40380074Y-132923609D01*
X40380074Y-132923609D02*
X40332455Y-132875990D01*
X40332455Y-132875990D02*
X40237217Y-132828371D01*
X40237217Y-132828371D02*
X40046741Y-132828371D01*
X40046741Y-132828371D02*
X39951503Y-132875990D01*
X39951503Y-132875990D02*
X39903884Y-132923609D01*
X39903884Y-132923609D02*
X39856265Y-133018847D01*
X40713408Y-132447419D02*
X41046741Y-133447419D01*
X41046741Y-133447419D02*
X41380074Y-132447419D01*
X42189598Y-132447419D02*
X41713408Y-132447419D01*
X41713408Y-132447419D02*
X41665789Y-132923609D01*
X41665789Y-132923609D02*
X41713408Y-132875990D01*
X41713408Y-132875990D02*
X41808646Y-132828371D01*
X41808646Y-132828371D02*
X42046741Y-132828371D01*
X42046741Y-132828371D02*
X42141979Y-132875990D01*
X42141979Y-132875990D02*
X42189598Y-132923609D01*
X42189598Y-132923609D02*
X42237217Y-133018847D01*
X42237217Y-133018847D02*
X42237217Y-133256942D01*
X42237217Y-133256942D02*
X42189598Y-133352180D01*
X42189598Y-133352180D02*
X42141979Y-133399800D01*
X42141979Y-133399800D02*
X42046741Y-133447419D01*
X42046741Y-133447419D02*
X41808646Y-133447419D01*
X41808646Y-133447419D02*
X41713408Y-133399800D01*
X41713408Y-133399800D02*
X41665789Y-133352180D01*
X39856265Y-135899800D02*
X39999122Y-135947419D01*
X39999122Y-135947419D02*
X40237217Y-135947419D01*
X40237217Y-135947419D02*
X40332455Y-135899800D01*
X40332455Y-135899800D02*
X40380074Y-135852180D01*
X40380074Y-135852180D02*
X40427693Y-135756942D01*
X40427693Y-135756942D02*
X40427693Y-135661704D01*
X40427693Y-135661704D02*
X40380074Y-135566466D01*
X40380074Y-135566466D02*
X40332455Y-135518847D01*
X40332455Y-135518847D02*
X40237217Y-135471228D01*
X40237217Y-135471228D02*
X40046741Y-135423609D01*
X40046741Y-135423609D02*
X39951503Y-135375990D01*
X39951503Y-135375990D02*
X39903884Y-135328371D01*
X39903884Y-135328371D02*
X39856265Y-135233133D01*
X39856265Y-135233133D02*
X39856265Y-135137895D01*
X39856265Y-135137895D02*
X39903884Y-135042657D01*
X39903884Y-135042657D02*
X39951503Y-134995038D01*
X39951503Y-134995038D02*
X40046741Y-134947419D01*
X40046741Y-134947419D02*
X40284836Y-134947419D01*
X40284836Y-134947419D02*
X40427693Y-134995038D01*
X40856265Y-135947419D02*
X40856265Y-134947419D01*
X40856265Y-134947419D02*
X41094360Y-134947419D01*
X41094360Y-134947419D02*
X41237217Y-134995038D01*
X41237217Y-134995038D02*
X41332455Y-135090276D01*
X41332455Y-135090276D02*
X41380074Y-135185514D01*
X41380074Y-135185514D02*
X41427693Y-135375990D01*
X41427693Y-135375990D02*
X41427693Y-135518847D01*
X41427693Y-135518847D02*
X41380074Y-135709323D01*
X41380074Y-135709323D02*
X41332455Y-135804561D01*
X41332455Y-135804561D02*
X41237217Y-135899800D01*
X41237217Y-135899800D02*
X41094360Y-135947419D01*
X41094360Y-135947419D02*
X40856265Y-135947419D01*
X42046741Y-134947419D02*
X42237217Y-134947419D01*
X42237217Y-134947419D02*
X42332455Y-134995038D01*
X42332455Y-134995038D02*
X42427693Y-135090276D01*
X42427693Y-135090276D02*
X42475312Y-135280752D01*
X42475312Y-135280752D02*
X42475312Y-135614085D01*
X42475312Y-135614085D02*
X42427693Y-135804561D01*
X42427693Y-135804561D02*
X42332455Y-135899800D01*
X42332455Y-135899800D02*
X42237217Y-135947419D01*
X42237217Y-135947419D02*
X42046741Y-135947419D01*
X42046741Y-135947419D02*
X41951503Y-135899800D01*
X41951503Y-135899800D02*
X41856265Y-135804561D01*
X41856265Y-135804561D02*
X41808646Y-135614085D01*
X41808646Y-135614085D02*
X41808646Y-135280752D01*
X41808646Y-135280752D02*
X41856265Y-135090276D01*
X41856265Y-135090276D02*
X41951503Y-134995038D01*
X41951503Y-134995038D02*
X42046741Y-134947419D01*
X40475312Y-138352180D02*
X40427693Y-138399800D01*
X40427693Y-138399800D02*
X40284836Y-138447419D01*
X40284836Y-138447419D02*
X40189598Y-138447419D01*
X40189598Y-138447419D02*
X40046741Y-138399800D01*
X40046741Y-138399800D02*
X39951503Y-138304561D01*
X39951503Y-138304561D02*
X39903884Y-138209323D01*
X39903884Y-138209323D02*
X39856265Y-138018847D01*
X39856265Y-138018847D02*
X39856265Y-137875990D01*
X39856265Y-137875990D02*
X39903884Y-137685514D01*
X39903884Y-137685514D02*
X39951503Y-137590276D01*
X39951503Y-137590276D02*
X40046741Y-137495038D01*
X40046741Y-137495038D02*
X40189598Y-137447419D01*
X40189598Y-137447419D02*
X40284836Y-137447419D01*
X40284836Y-137447419D02*
X40427693Y-137495038D01*
X40427693Y-137495038D02*
X40475312Y-137542657D01*
X41380074Y-138447419D02*
X40903884Y-138447419D01*
X40903884Y-138447419D02*
X40903884Y-137447419D01*
X41713408Y-138447419D02*
X41713408Y-137447419D01*
X42284836Y-138447419D02*
X41856265Y-137875990D01*
X42284836Y-137447419D02*
X41713408Y-138018847D01*
X40380074Y-140947419D02*
X39903884Y-140947419D01*
X39903884Y-140947419D02*
X39903884Y-139947419D01*
X40665789Y-140661704D02*
X41141979Y-140661704D01*
X40570551Y-140947419D02*
X40903884Y-139947419D01*
X40903884Y-139947419D02*
X41237217Y-140947419D01*
X41427694Y-139947419D02*
X41999122Y-139947419D01*
X41713408Y-140947419D02*
X41713408Y-139947419D01*
X42903884Y-140852180D02*
X42856265Y-140899800D01*
X42856265Y-140899800D02*
X42713408Y-140947419D01*
X42713408Y-140947419D02*
X42618170Y-140947419D01*
X42618170Y-140947419D02*
X42475313Y-140899800D01*
X42475313Y-140899800D02*
X42380075Y-140804561D01*
X42380075Y-140804561D02*
X42332456Y-140709323D01*
X42332456Y-140709323D02*
X42284837Y-140518847D01*
X42284837Y-140518847D02*
X42284837Y-140375990D01*
X42284837Y-140375990D02*
X42332456Y-140185514D01*
X42332456Y-140185514D02*
X42380075Y-140090276D01*
X42380075Y-140090276D02*
X42475313Y-139995038D01*
X42475313Y-139995038D02*
X42618170Y-139947419D01*
X42618170Y-139947419D02*
X42713408Y-139947419D01*
X42713408Y-139947419D02*
X42856265Y-139995038D01*
X42856265Y-139995038D02*
X42903884Y-140042657D01*
X43332456Y-140947419D02*
X43332456Y-139947419D01*
X43332456Y-140423609D02*
X43903884Y-140423609D01*
X43903884Y-140947419D02*
X43903884Y-139947419D01*
X40094360Y-142447419D02*
X40284836Y-142447419D01*
X40284836Y-142447419D02*
X40380074Y-142495038D01*
X40380074Y-142495038D02*
X40475312Y-142590276D01*
X40475312Y-142590276D02*
X40522931Y-142780752D01*
X40522931Y-142780752D02*
X40522931Y-143114085D01*
X40522931Y-143114085D02*
X40475312Y-143304561D01*
X40475312Y-143304561D02*
X40380074Y-143399800D01*
X40380074Y-143399800D02*
X40284836Y-143447419D01*
X40284836Y-143447419D02*
X40094360Y-143447419D01*
X40094360Y-143447419D02*
X39999122Y-143399800D01*
X39999122Y-143399800D02*
X39903884Y-143304561D01*
X39903884Y-143304561D02*
X39856265Y-143114085D01*
X39856265Y-143114085D02*
X39856265Y-142780752D01*
X39856265Y-142780752D02*
X39903884Y-142590276D01*
X39903884Y-142590276D02*
X39999122Y-142495038D01*
X39999122Y-142495038D02*
X40094360Y-142447419D01*
X40951503Y-142923609D02*
X41284836Y-142923609D01*
X41427693Y-143447419D02*
X40951503Y-143447419D01*
X40951503Y-143447419D02*
X40951503Y-142447419D01*
X40951503Y-142447419D02*
X41427693Y-142447419D01*
X40427693Y-145245038D02*
X40332455Y-145197419D01*
X40332455Y-145197419D02*
X40189598Y-145197419D01*
X40189598Y-145197419D02*
X40046741Y-145245038D01*
X40046741Y-145245038D02*
X39951503Y-145340276D01*
X39951503Y-145340276D02*
X39903884Y-145435514D01*
X39903884Y-145435514D02*
X39856265Y-145625990D01*
X39856265Y-145625990D02*
X39856265Y-145768847D01*
X39856265Y-145768847D02*
X39903884Y-145959323D01*
X39903884Y-145959323D02*
X39951503Y-146054561D01*
X39951503Y-146054561D02*
X40046741Y-146149800D01*
X40046741Y-146149800D02*
X40189598Y-146197419D01*
X40189598Y-146197419D02*
X40284836Y-146197419D01*
X40284836Y-146197419D02*
X40427693Y-146149800D01*
X40427693Y-146149800D02*
X40475312Y-146102180D01*
X40475312Y-146102180D02*
X40475312Y-145768847D01*
X40475312Y-145768847D02*
X40284836Y-145768847D01*
X40903884Y-146197419D02*
X40903884Y-145197419D01*
X40903884Y-145197419D02*
X41475312Y-146197419D01*
X41475312Y-146197419D02*
X41475312Y-145197419D01*
X41951503Y-146197419D02*
X41951503Y-145197419D01*
X41951503Y-145197419D02*
X42189598Y-145197419D01*
X42189598Y-145197419D02*
X42332455Y-145245038D01*
X42332455Y-145245038D02*
X42427693Y-145340276D01*
X42427693Y-145340276D02*
X42475312Y-145435514D01*
X42475312Y-145435514D02*
X42522931Y-145625990D01*
X42522931Y-145625990D02*
X42522931Y-145768847D01*
X42522931Y-145768847D02*
X42475312Y-145959323D01*
X42475312Y-145959323D02*
X42427693Y-146054561D01*
X42427693Y-146054561D02*
X42332455Y-146149800D01*
X42332455Y-146149800D02*
X42189598Y-146197419D01*
X42189598Y-146197419D02*
X41951503Y-146197419D01*
X98130074Y-140947419D02*
X97653884Y-140947419D01*
X97653884Y-140947419D02*
X97653884Y-139947419D01*
X98415789Y-140661704D02*
X98891979Y-140661704D01*
X98320551Y-140947419D02*
X98653884Y-139947419D01*
X98653884Y-139947419D02*
X98987217Y-140947419D01*
X99177694Y-139947419D02*
X99749122Y-139947419D01*
X99463408Y-140947419D02*
X99463408Y-139947419D01*
X100653884Y-140852180D02*
X100606265Y-140899800D01*
X100606265Y-140899800D02*
X100463408Y-140947419D01*
X100463408Y-140947419D02*
X100368170Y-140947419D01*
X100368170Y-140947419D02*
X100225313Y-140899800D01*
X100225313Y-140899800D02*
X100130075Y-140804561D01*
X100130075Y-140804561D02*
X100082456Y-140709323D01*
X100082456Y-140709323D02*
X100034837Y-140518847D01*
X100034837Y-140518847D02*
X100034837Y-140375990D01*
X100034837Y-140375990D02*
X100082456Y-140185514D01*
X100082456Y-140185514D02*
X100130075Y-140090276D01*
X100130075Y-140090276D02*
X100225313Y-139995038D01*
X100225313Y-139995038D02*
X100368170Y-139947419D01*
X100368170Y-139947419D02*
X100463408Y-139947419D01*
X100463408Y-139947419D02*
X100606265Y-139995038D01*
X100606265Y-139995038D02*
X100653884Y-140042657D01*
X101082456Y-140947419D02*
X101082456Y-139947419D01*
X101082456Y-140423609D02*
X101653884Y-140423609D01*
X101653884Y-140947419D02*
X101653884Y-139947419D01*
X99832455Y-132197419D02*
X99641979Y-132197419D01*
X99641979Y-132197419D02*
X99546741Y-132245038D01*
X99546741Y-132245038D02*
X99499122Y-132292657D01*
X99499122Y-132292657D02*
X99403884Y-132435514D01*
X99403884Y-132435514D02*
X99356265Y-132625990D01*
X99356265Y-132625990D02*
X99356265Y-133006942D01*
X99356265Y-133006942D02*
X99403884Y-133102180D01*
X99403884Y-133102180D02*
X99451503Y-133149800D01*
X99451503Y-133149800D02*
X99546741Y-133197419D01*
X99546741Y-133197419D02*
X99737217Y-133197419D01*
X99737217Y-133197419D02*
X99832455Y-133149800D01*
X99832455Y-133149800D02*
X99880074Y-133102180D01*
X99880074Y-133102180D02*
X99927693Y-133006942D01*
X99927693Y-133006942D02*
X99927693Y-132768847D01*
X99927693Y-132768847D02*
X99880074Y-132673609D01*
X99880074Y-132673609D02*
X99832455Y-132625990D01*
X99832455Y-132625990D02*
X99737217Y-132578371D01*
X99737217Y-132578371D02*
X99546741Y-132578371D01*
X99546741Y-132578371D02*
X99451503Y-132625990D01*
X99451503Y-132625990D02*
X99403884Y-132673609D01*
X99403884Y-132673609D02*
X99356265Y-132768847D01*
X100213408Y-132197419D02*
X100546741Y-133197419D01*
X100546741Y-133197419D02*
X100880074Y-132197419D01*
X101689598Y-132197419D02*
X101213408Y-132197419D01*
X101213408Y-132197419D02*
X101165789Y-132673609D01*
X101165789Y-132673609D02*
X101213408Y-132625990D01*
X101213408Y-132625990D02*
X101308646Y-132578371D01*
X101308646Y-132578371D02*
X101546741Y-132578371D01*
X101546741Y-132578371D02*
X101641979Y-132625990D01*
X101641979Y-132625990D02*
X101689598Y-132673609D01*
X101689598Y-132673609D02*
X101737217Y-132768847D01*
X101737217Y-132768847D02*
X101737217Y-133006942D01*
X101737217Y-133006942D02*
X101689598Y-133102180D01*
X101689598Y-133102180D02*
X101641979Y-133149800D01*
X101641979Y-133149800D02*
X101546741Y-133197419D01*
X101546741Y-133197419D02*
X101308646Y-133197419D01*
X101308646Y-133197419D02*
X101213408Y-133149800D01*
X101213408Y-133149800D02*
X101165789Y-133102180D01*
X99356265Y-135899800D02*
X99499122Y-135947419D01*
X99499122Y-135947419D02*
X99737217Y-135947419D01*
X99737217Y-135947419D02*
X99832455Y-135899800D01*
X99832455Y-135899800D02*
X99880074Y-135852180D01*
X99880074Y-135852180D02*
X99927693Y-135756942D01*
X99927693Y-135756942D02*
X99927693Y-135661704D01*
X99927693Y-135661704D02*
X99880074Y-135566466D01*
X99880074Y-135566466D02*
X99832455Y-135518847D01*
X99832455Y-135518847D02*
X99737217Y-135471228D01*
X99737217Y-135471228D02*
X99546741Y-135423609D01*
X99546741Y-135423609D02*
X99451503Y-135375990D01*
X99451503Y-135375990D02*
X99403884Y-135328371D01*
X99403884Y-135328371D02*
X99356265Y-135233133D01*
X99356265Y-135233133D02*
X99356265Y-135137895D01*
X99356265Y-135137895D02*
X99403884Y-135042657D01*
X99403884Y-135042657D02*
X99451503Y-134995038D01*
X99451503Y-134995038D02*
X99546741Y-134947419D01*
X99546741Y-134947419D02*
X99784836Y-134947419D01*
X99784836Y-134947419D02*
X99927693Y-134995038D01*
X100356265Y-135947419D02*
X100356265Y-134947419D01*
X100356265Y-134947419D02*
X100594360Y-134947419D01*
X100594360Y-134947419D02*
X100737217Y-134995038D01*
X100737217Y-134995038D02*
X100832455Y-135090276D01*
X100832455Y-135090276D02*
X100880074Y-135185514D01*
X100880074Y-135185514D02*
X100927693Y-135375990D01*
X100927693Y-135375990D02*
X100927693Y-135518847D01*
X100927693Y-135518847D02*
X100880074Y-135709323D01*
X100880074Y-135709323D02*
X100832455Y-135804561D01*
X100832455Y-135804561D02*
X100737217Y-135899800D01*
X100737217Y-135899800D02*
X100594360Y-135947419D01*
X100594360Y-135947419D02*
X100356265Y-135947419D01*
X101356265Y-135947419D02*
X101356265Y-134947419D01*
X99975312Y-138352180D02*
X99927693Y-138399800D01*
X99927693Y-138399800D02*
X99784836Y-138447419D01*
X99784836Y-138447419D02*
X99689598Y-138447419D01*
X99689598Y-138447419D02*
X99546741Y-138399800D01*
X99546741Y-138399800D02*
X99451503Y-138304561D01*
X99451503Y-138304561D02*
X99403884Y-138209323D01*
X99403884Y-138209323D02*
X99356265Y-138018847D01*
X99356265Y-138018847D02*
X99356265Y-137875990D01*
X99356265Y-137875990D02*
X99403884Y-137685514D01*
X99403884Y-137685514D02*
X99451503Y-137590276D01*
X99451503Y-137590276D02*
X99546741Y-137495038D01*
X99546741Y-137495038D02*
X99689598Y-137447419D01*
X99689598Y-137447419D02*
X99784836Y-137447419D01*
X99784836Y-137447419D02*
X99927693Y-137495038D01*
X99927693Y-137495038D02*
X99975312Y-137542657D01*
X100880074Y-138447419D02*
X100403884Y-138447419D01*
X100403884Y-138447419D02*
X100403884Y-137447419D01*
X101213408Y-138447419D02*
X101213408Y-137447419D01*
X101784836Y-138447419D02*
X101356265Y-137875990D01*
X101784836Y-137447419D02*
X101213408Y-138018847D01*
X99927693Y-145245038D02*
X99832455Y-145197419D01*
X99832455Y-145197419D02*
X99689598Y-145197419D01*
X99689598Y-145197419D02*
X99546741Y-145245038D01*
X99546741Y-145245038D02*
X99451503Y-145340276D01*
X99451503Y-145340276D02*
X99403884Y-145435514D01*
X99403884Y-145435514D02*
X99356265Y-145625990D01*
X99356265Y-145625990D02*
X99356265Y-145768847D01*
X99356265Y-145768847D02*
X99403884Y-145959323D01*
X99403884Y-145959323D02*
X99451503Y-146054561D01*
X99451503Y-146054561D02*
X99546741Y-146149800D01*
X99546741Y-146149800D02*
X99689598Y-146197419D01*
X99689598Y-146197419D02*
X99784836Y-146197419D01*
X99784836Y-146197419D02*
X99927693Y-146149800D01*
X99927693Y-146149800D02*
X99975312Y-146102180D01*
X99975312Y-146102180D02*
X99975312Y-145768847D01*
X99975312Y-145768847D02*
X99784836Y-145768847D01*
X100403884Y-146197419D02*
X100403884Y-145197419D01*
X100403884Y-145197419D02*
X100975312Y-146197419D01*
X100975312Y-146197419D02*
X100975312Y-145197419D01*
X101451503Y-146197419D02*
X101451503Y-145197419D01*
X101451503Y-145197419D02*
X101689598Y-145197419D01*
X101689598Y-145197419D02*
X101832455Y-145245038D01*
X101832455Y-145245038D02*
X101927693Y-145340276D01*
X101927693Y-145340276D02*
X101975312Y-145435514D01*
X101975312Y-145435514D02*
X102022931Y-145625990D01*
X102022931Y-145625990D02*
X102022931Y-145768847D01*
X102022931Y-145768847D02*
X101975312Y-145959323D01*
X101975312Y-145959323D02*
X101927693Y-146054561D01*
X101927693Y-146054561D02*
X101832455Y-146149800D01*
X101832455Y-146149800D02*
X101689598Y-146197419D01*
X101689598Y-146197419D02*
X101451503Y-146197419D01*
X100344360Y-142447419D02*
X100534836Y-142447419D01*
X100534836Y-142447419D02*
X100630074Y-142495038D01*
X100630074Y-142495038D02*
X100725312Y-142590276D01*
X100725312Y-142590276D02*
X100772931Y-142780752D01*
X100772931Y-142780752D02*
X100772931Y-143114085D01*
X100772931Y-143114085D02*
X100725312Y-143304561D01*
X100725312Y-143304561D02*
X100630074Y-143399800D01*
X100630074Y-143399800D02*
X100534836Y-143447419D01*
X100534836Y-143447419D02*
X100344360Y-143447419D01*
X100344360Y-143447419D02*
X100249122Y-143399800D01*
X100249122Y-143399800D02*
X100153884Y-143304561D01*
X100153884Y-143304561D02*
X100106265Y-143114085D01*
X100106265Y-143114085D02*
X100106265Y-142780752D01*
X100106265Y-142780752D02*
X100153884Y-142590276D01*
X100153884Y-142590276D02*
X100249122Y-142495038D01*
X100249122Y-142495038D02*
X100344360Y-142447419D01*
X101201503Y-142923609D02*
X101534836Y-142923609D01*
X101677693Y-143447419D02*
X101201503Y-143447419D01*
X101201503Y-143447419D02*
X101201503Y-142447419D01*
X101201503Y-142447419D02*
X101677693Y-142447419D01*
D14*
X36703006Y-28242742D02*
X36988720Y-29042742D01*
X36988720Y-29042742D02*
X37274435Y-28242742D01*
X38360149Y-29042742D02*
X37674435Y-29042742D01*
X38017292Y-29042742D02*
X38017292Y-27842742D01*
X38017292Y-27842742D02*
X37903006Y-28014171D01*
X37903006Y-28014171D02*
X37788721Y-28128457D01*
X37788721Y-28128457D02*
X37674435Y-28185600D01*
X38874435Y-28928457D02*
X38931578Y-28985600D01*
X38931578Y-28985600D02*
X38874435Y-29042742D01*
X38874435Y-29042742D02*
X38817292Y-28985600D01*
X38817292Y-28985600D02*
X38874435Y-28928457D01*
X38874435Y-28928457D02*
X38874435Y-29042742D01*
X39674435Y-27842742D02*
X39788721Y-27842742D01*
X39788721Y-27842742D02*
X39903007Y-27899885D01*
X39903007Y-27899885D02*
X39960150Y-27957028D01*
X39960150Y-27957028D02*
X40017292Y-28071314D01*
X40017292Y-28071314D02*
X40074435Y-28299885D01*
X40074435Y-28299885D02*
X40074435Y-28585600D01*
X40074435Y-28585600D02*
X40017292Y-28814171D01*
X40017292Y-28814171D02*
X39960150Y-28928457D01*
X39960150Y-28928457D02*
X39903007Y-28985600D01*
X39903007Y-28985600D02*
X39788721Y-29042742D01*
X39788721Y-29042742D02*
X39674435Y-29042742D01*
X39674435Y-29042742D02*
X39560150Y-28985600D01*
X39560150Y-28985600D02*
X39503007Y-28928457D01*
X39503007Y-28928457D02*
X39445864Y-28814171D01*
X39445864Y-28814171D02*
X39388721Y-28585600D01*
X39388721Y-28585600D02*
X39388721Y-28299885D01*
X39388721Y-28299885D02*
X39445864Y-28071314D01*
X39445864Y-28071314D02*
X39503007Y-27957028D01*
X39503007Y-27957028D02*
X39560150Y-27899885D01*
X39560150Y-27899885D02*
X39674435Y-27842742D01*
X41503007Y-28585600D02*
X42417293Y-28585600D01*
X44131578Y-27842742D02*
X44245864Y-27842742D01*
X44245864Y-27842742D02*
X44360150Y-27899885D01*
X44360150Y-27899885D02*
X44417293Y-27957028D01*
X44417293Y-27957028D02*
X44474435Y-28071314D01*
X44474435Y-28071314D02*
X44531578Y-28299885D01*
X44531578Y-28299885D02*
X44531578Y-28585600D01*
X44531578Y-28585600D02*
X44474435Y-28814171D01*
X44474435Y-28814171D02*
X44417293Y-28928457D01*
X44417293Y-28928457D02*
X44360150Y-28985600D01*
X44360150Y-28985600D02*
X44245864Y-29042742D01*
X44245864Y-29042742D02*
X44131578Y-29042742D01*
X44131578Y-29042742D02*
X44017293Y-28985600D01*
X44017293Y-28985600D02*
X43960150Y-28928457D01*
X43960150Y-28928457D02*
X43903007Y-28814171D01*
X43903007Y-28814171D02*
X43845864Y-28585600D01*
X43845864Y-28585600D02*
X43845864Y-28299885D01*
X43845864Y-28299885D02*
X43903007Y-28071314D01*
X43903007Y-28071314D02*
X43960150Y-27957028D01*
X43960150Y-27957028D02*
X44017293Y-27899885D01*
X44017293Y-27899885D02*
X44131578Y-27842742D01*
X45103007Y-29042742D02*
X45331578Y-29042742D01*
X45331578Y-29042742D02*
X45445864Y-28985600D01*
X45445864Y-28985600D02*
X45503007Y-28928457D01*
X45503007Y-28928457D02*
X45617292Y-28757028D01*
X45617292Y-28757028D02*
X45674435Y-28528457D01*
X45674435Y-28528457D02*
X45674435Y-28071314D01*
X45674435Y-28071314D02*
X45617292Y-27957028D01*
X45617292Y-27957028D02*
X45560150Y-27899885D01*
X45560150Y-27899885D02*
X45445864Y-27842742D01*
X45445864Y-27842742D02*
X45217292Y-27842742D01*
X45217292Y-27842742D02*
X45103007Y-27899885D01*
X45103007Y-27899885D02*
X45045864Y-27957028D01*
X45045864Y-27957028D02*
X44988721Y-28071314D01*
X44988721Y-28071314D02*
X44988721Y-28357028D01*
X44988721Y-28357028D02*
X45045864Y-28471314D01*
X45045864Y-28471314D02*
X45103007Y-28528457D01*
X45103007Y-28528457D02*
X45217292Y-28585600D01*
X45217292Y-28585600D02*
X45445864Y-28585600D01*
X45445864Y-28585600D02*
X45560150Y-28528457D01*
X45560150Y-28528457D02*
X45617292Y-28471314D01*
X45617292Y-28471314D02*
X45674435Y-28357028D01*
X47045864Y-27785600D02*
X46017292Y-29328457D01*
X47388721Y-27957028D02*
X47445864Y-27899885D01*
X47445864Y-27899885D02*
X47560150Y-27842742D01*
X47560150Y-27842742D02*
X47845864Y-27842742D01*
X47845864Y-27842742D02*
X47960150Y-27899885D01*
X47960150Y-27899885D02*
X48017292Y-27957028D01*
X48017292Y-27957028D02*
X48074435Y-28071314D01*
X48074435Y-28071314D02*
X48074435Y-28185600D01*
X48074435Y-28185600D02*
X48017292Y-28357028D01*
X48017292Y-28357028D02*
X47331578Y-29042742D01*
X47331578Y-29042742D02*
X48074435Y-29042742D01*
X49103007Y-27842742D02*
X48874435Y-27842742D01*
X48874435Y-27842742D02*
X48760149Y-27899885D01*
X48760149Y-27899885D02*
X48703007Y-27957028D01*
X48703007Y-27957028D02*
X48588721Y-28128457D01*
X48588721Y-28128457D02*
X48531578Y-28357028D01*
X48531578Y-28357028D02*
X48531578Y-28814171D01*
X48531578Y-28814171D02*
X48588721Y-28928457D01*
X48588721Y-28928457D02*
X48645864Y-28985600D01*
X48645864Y-28985600D02*
X48760149Y-29042742D01*
X48760149Y-29042742D02*
X48988721Y-29042742D01*
X48988721Y-29042742D02*
X49103007Y-28985600D01*
X49103007Y-28985600D02*
X49160149Y-28928457D01*
X49160149Y-28928457D02*
X49217292Y-28814171D01*
X49217292Y-28814171D02*
X49217292Y-28528457D01*
X49217292Y-28528457D02*
X49160149Y-28414171D01*
X49160149Y-28414171D02*
X49103007Y-28357028D01*
X49103007Y-28357028D02*
X48988721Y-28299885D01*
X48988721Y-28299885D02*
X48760149Y-28299885D01*
X48760149Y-28299885D02*
X48645864Y-28357028D01*
X48645864Y-28357028D02*
X48588721Y-28414171D01*
X48588721Y-28414171D02*
X48531578Y-28528457D01*
D11*
X37340225Y-25492019D02*
X36673558Y-25492019D01*
X36673558Y-26539638D02*
X36673558Y-24539638D01*
X36673558Y-24539638D02*
X37625939Y-24539638D01*
X38387844Y-26539638D02*
X38387844Y-24539638D01*
X40483082Y-26539638D02*
X39816415Y-25587257D01*
X39340225Y-26539638D02*
X39340225Y-24539638D01*
X39340225Y-24539638D02*
X40102130Y-24539638D01*
X40102130Y-24539638D02*
X40292606Y-24634876D01*
X40292606Y-24634876D02*
X40387844Y-24730114D01*
X40387844Y-24730114D02*
X40483082Y-24920590D01*
X40483082Y-24920590D02*
X40483082Y-25206304D01*
X40483082Y-25206304D02*
X40387844Y-25396780D01*
X40387844Y-25396780D02*
X40292606Y-25492019D01*
X40292606Y-25492019D02*
X40102130Y-25587257D01*
X40102130Y-25587257D02*
X39340225Y-25587257D01*
X41149749Y-24539638D02*
X42387844Y-24539638D01*
X42387844Y-24539638D02*
X41721177Y-25301542D01*
X41721177Y-25301542D02*
X42006892Y-25301542D01*
X42006892Y-25301542D02*
X42197368Y-25396780D01*
X42197368Y-25396780D02*
X42292606Y-25492019D01*
X42292606Y-25492019D02*
X42387844Y-25682495D01*
X42387844Y-25682495D02*
X42387844Y-26158685D01*
X42387844Y-26158685D02*
X42292606Y-26349161D01*
X42292606Y-26349161D02*
X42197368Y-26444400D01*
X42197368Y-26444400D02*
X42006892Y-26539638D01*
X42006892Y-26539638D02*
X41435463Y-26539638D01*
X41435463Y-26539638D02*
X41244987Y-26444400D01*
X41244987Y-26444400D02*
X41149749Y-26349161D01*
X43911654Y-25492019D02*
X43244987Y-25492019D01*
X43244987Y-26539638D02*
X43244987Y-24539638D01*
X43244987Y-24539638D02*
X44197368Y-24539638D01*
X45911654Y-26539638D02*
X44959273Y-26539638D01*
X44959273Y-26539638D02*
X44959273Y-24539638D01*
X46959273Y-25587257D02*
X46959273Y-26539638D01*
X46292607Y-24539638D02*
X46959273Y-25587257D01*
X46959273Y-25587257D02*
X47625940Y-24539638D01*
D15*
X93466667Y-140963335D02*
X93200000Y-140582382D01*
X93009524Y-140963335D02*
X93009524Y-140163335D01*
X93009524Y-140163335D02*
X93314286Y-140163335D01*
X93314286Y-140163335D02*
X93390476Y-140201430D01*
X93390476Y-140201430D02*
X93428571Y-140239525D01*
X93428571Y-140239525D02*
X93466667Y-140315716D01*
X93466667Y-140315716D02*
X93466667Y-140430001D01*
X93466667Y-140430001D02*
X93428571Y-140506192D01*
X93428571Y-140506192D02*
X93390476Y-140544287D01*
X93390476Y-140544287D02*
X93314286Y-140582382D01*
X93314286Y-140582382D02*
X93009524Y-140582382D01*
X93771428Y-140239525D02*
X93809524Y-140201430D01*
X93809524Y-140201430D02*
X93885714Y-140163335D01*
X93885714Y-140163335D02*
X94076190Y-140163335D01*
X94076190Y-140163335D02*
X94152381Y-140201430D01*
X94152381Y-140201430D02*
X94190476Y-140239525D01*
X94190476Y-140239525D02*
X94228571Y-140315716D01*
X94228571Y-140315716D02*
X94228571Y-140391906D01*
X94228571Y-140391906D02*
X94190476Y-140506192D01*
X94190476Y-140506192D02*
X93733333Y-140963335D01*
X93733333Y-140963335D02*
X94228571Y-140963335D01*
X94866667Y-138738335D02*
X94600000Y-138357382D01*
X94409524Y-138738335D02*
X94409524Y-137938335D01*
X94409524Y-137938335D02*
X94714286Y-137938335D01*
X94714286Y-137938335D02*
X94790476Y-137976430D01*
X94790476Y-137976430D02*
X94828571Y-138014525D01*
X94828571Y-138014525D02*
X94866667Y-138090716D01*
X94866667Y-138090716D02*
X94866667Y-138205001D01*
X94866667Y-138205001D02*
X94828571Y-138281192D01*
X94828571Y-138281192D02*
X94790476Y-138319287D01*
X94790476Y-138319287D02*
X94714286Y-138357382D01*
X94714286Y-138357382D02*
X94409524Y-138357382D01*
X95133333Y-137938335D02*
X95628571Y-137938335D01*
X95628571Y-137938335D02*
X95361905Y-138243097D01*
X95361905Y-138243097D02*
X95476190Y-138243097D01*
X95476190Y-138243097D02*
X95552381Y-138281192D01*
X95552381Y-138281192D02*
X95590476Y-138319287D01*
X95590476Y-138319287D02*
X95628571Y-138395478D01*
X95628571Y-138395478D02*
X95628571Y-138585954D01*
X95628571Y-138585954D02*
X95590476Y-138662144D01*
X95590476Y-138662144D02*
X95552381Y-138700240D01*
X95552381Y-138700240D02*
X95476190Y-138738335D01*
X95476190Y-138738335D02*
X95247619Y-138738335D01*
X95247619Y-138738335D02*
X95171428Y-138700240D01*
X95171428Y-138700240D02*
X95133333Y-138662144D01*
X92466667Y-136462144D02*
X92428571Y-136500240D01*
X92428571Y-136500240D02*
X92314286Y-136538335D01*
X92314286Y-136538335D02*
X92238095Y-136538335D01*
X92238095Y-136538335D02*
X92123809Y-136500240D01*
X92123809Y-136500240D02*
X92047619Y-136424049D01*
X92047619Y-136424049D02*
X92009524Y-136347859D01*
X92009524Y-136347859D02*
X91971428Y-136195478D01*
X91971428Y-136195478D02*
X91971428Y-136081192D01*
X91971428Y-136081192D02*
X92009524Y-135928811D01*
X92009524Y-135928811D02*
X92047619Y-135852620D01*
X92047619Y-135852620D02*
X92123809Y-135776430D01*
X92123809Y-135776430D02*
X92238095Y-135738335D01*
X92238095Y-135738335D02*
X92314286Y-135738335D01*
X92314286Y-135738335D02*
X92428571Y-135776430D01*
X92428571Y-135776430D02*
X92466667Y-135814525D01*
X93228571Y-136538335D02*
X92771428Y-136538335D01*
X93000000Y-136538335D02*
X93000000Y-135738335D01*
X93000000Y-135738335D02*
X92923809Y-135852620D01*
X92923809Y-135852620D02*
X92847619Y-135928811D01*
X92847619Y-135928811D02*
X92771428Y-135966906D01*
X93266667Y-128887144D02*
X93228571Y-128925240D01*
X93228571Y-128925240D02*
X93114286Y-128963335D01*
X93114286Y-128963335D02*
X93038095Y-128963335D01*
X93038095Y-128963335D02*
X92923809Y-128925240D01*
X92923809Y-128925240D02*
X92847619Y-128849049D01*
X92847619Y-128849049D02*
X92809524Y-128772859D01*
X92809524Y-128772859D02*
X92771428Y-128620478D01*
X92771428Y-128620478D02*
X92771428Y-128506192D01*
X92771428Y-128506192D02*
X92809524Y-128353811D01*
X92809524Y-128353811D02*
X92847619Y-128277620D01*
X92847619Y-128277620D02*
X92923809Y-128201430D01*
X92923809Y-128201430D02*
X93038095Y-128163335D01*
X93038095Y-128163335D02*
X93114286Y-128163335D01*
X93114286Y-128163335D02*
X93228571Y-128201430D01*
X93228571Y-128201430D02*
X93266667Y-128239525D01*
X93571428Y-128239525D02*
X93609524Y-128201430D01*
X93609524Y-128201430D02*
X93685714Y-128163335D01*
X93685714Y-128163335D02*
X93876190Y-128163335D01*
X93876190Y-128163335D02*
X93952381Y-128201430D01*
X93952381Y-128201430D02*
X93990476Y-128239525D01*
X93990476Y-128239525D02*
X94028571Y-128315716D01*
X94028571Y-128315716D02*
X94028571Y-128391906D01*
X94028571Y-128391906D02*
X93990476Y-128506192D01*
X93990476Y-128506192D02*
X93533333Y-128963335D01*
X93533333Y-128963335D02*
X94028571Y-128963335D01*
X96127976Y-129938335D02*
X96127976Y-130585954D01*
X96127976Y-130585954D02*
X96166071Y-130662144D01*
X96166071Y-130662144D02*
X96204166Y-130700240D01*
X96204166Y-130700240D02*
X96280357Y-130738335D01*
X96280357Y-130738335D02*
X96432738Y-130738335D01*
X96432738Y-130738335D02*
X96508928Y-130700240D01*
X96508928Y-130700240D02*
X96547023Y-130662144D01*
X96547023Y-130662144D02*
X96585119Y-130585954D01*
X96585119Y-130585954D02*
X96585119Y-129938335D01*
X97385118Y-130738335D02*
X96927975Y-130738335D01*
X97156547Y-130738335D02*
X97156547Y-129938335D01*
X97156547Y-129938335D02*
X97080356Y-130052620D01*
X97080356Y-130052620D02*
X97004166Y-130128811D01*
X97004166Y-130128811D02*
X96927975Y-130166906D01*
X95866667Y-142963335D02*
X95600000Y-142582382D01*
X95409524Y-142963335D02*
X95409524Y-142163335D01*
X95409524Y-142163335D02*
X95714286Y-142163335D01*
X95714286Y-142163335D02*
X95790476Y-142201430D01*
X95790476Y-142201430D02*
X95828571Y-142239525D01*
X95828571Y-142239525D02*
X95866667Y-142315716D01*
X95866667Y-142315716D02*
X95866667Y-142430001D01*
X95866667Y-142430001D02*
X95828571Y-142506192D01*
X95828571Y-142506192D02*
X95790476Y-142544287D01*
X95790476Y-142544287D02*
X95714286Y-142582382D01*
X95714286Y-142582382D02*
X95409524Y-142582382D01*
X96628571Y-142963335D02*
X96171428Y-142963335D01*
X96400000Y-142963335D02*
X96400000Y-142163335D01*
X96400000Y-142163335D02*
X96323809Y-142277620D01*
X96323809Y-142277620D02*
X96247619Y-142353811D01*
X96247619Y-142353811D02*
X96171428Y-142391906D01*
X60841667Y-67763335D02*
X60575000Y-67382382D01*
X60384524Y-67763335D02*
X60384524Y-66963335D01*
X60384524Y-66963335D02*
X60689286Y-66963335D01*
X60689286Y-66963335D02*
X60765476Y-67001430D01*
X60765476Y-67001430D02*
X60803571Y-67039525D01*
X60803571Y-67039525D02*
X60841667Y-67115716D01*
X60841667Y-67115716D02*
X60841667Y-67230001D01*
X60841667Y-67230001D02*
X60803571Y-67306192D01*
X60803571Y-67306192D02*
X60765476Y-67344287D01*
X60765476Y-67344287D02*
X60689286Y-67382382D01*
X60689286Y-67382382D02*
X60384524Y-67382382D01*
X61527381Y-67230001D02*
X61527381Y-67763335D01*
X61336905Y-66925240D02*
X61146428Y-67496668D01*
X61146428Y-67496668D02*
X61641667Y-67496668D01*
D10*
X103421429Y-148904819D02*
X103421429Y-147904819D01*
X103897619Y-148904819D02*
X103897619Y-147904819D01*
X103897619Y-147904819D02*
X104469047Y-148904819D01*
X104469047Y-148904819D02*
X104469047Y-147904819D01*
X104945238Y-148904819D02*
X104945238Y-147904819D01*
X104945238Y-147904819D02*
X105326190Y-147904819D01*
X105326190Y-147904819D02*
X105421428Y-147952438D01*
X105421428Y-147952438D02*
X105469047Y-148000057D01*
X105469047Y-148000057D02*
X105516666Y-148095295D01*
X105516666Y-148095295D02*
X105516666Y-148238152D01*
X105516666Y-148238152D02*
X105469047Y-148333390D01*
X105469047Y-148333390D02*
X105421428Y-148381009D01*
X105421428Y-148381009D02*
X105326190Y-148428628D01*
X105326190Y-148428628D02*
X104945238Y-148428628D01*
X105945238Y-147904819D02*
X105945238Y-148714342D01*
X105945238Y-148714342D02*
X105992857Y-148809580D01*
X105992857Y-148809580D02*
X106040476Y-148857200D01*
X106040476Y-148857200D02*
X106135714Y-148904819D01*
X106135714Y-148904819D02*
X106326190Y-148904819D01*
X106326190Y-148904819D02*
X106421428Y-148857200D01*
X106421428Y-148857200D02*
X106469047Y-148809580D01*
X106469047Y-148809580D02*
X106516666Y-148714342D01*
X106516666Y-148714342D02*
X106516666Y-147904819D01*
X106850000Y-147904819D02*
X107421428Y-147904819D01*
X107135714Y-148904819D02*
X107135714Y-147904819D01*
X30815238Y-147749819D02*
X31005714Y-147749819D01*
X31005714Y-147749819D02*
X31100952Y-147797438D01*
X31100952Y-147797438D02*
X31196190Y-147892676D01*
X31196190Y-147892676D02*
X31243809Y-148083152D01*
X31243809Y-148083152D02*
X31243809Y-148416485D01*
X31243809Y-148416485D02*
X31196190Y-148606961D01*
X31196190Y-148606961D02*
X31100952Y-148702200D01*
X31100952Y-148702200D02*
X31005714Y-148749819D01*
X31005714Y-148749819D02*
X30815238Y-148749819D01*
X30815238Y-148749819D02*
X30720000Y-148702200D01*
X30720000Y-148702200D02*
X30624762Y-148606961D01*
X30624762Y-148606961D02*
X30577143Y-148416485D01*
X30577143Y-148416485D02*
X30577143Y-148083152D01*
X30577143Y-148083152D02*
X30624762Y-147892676D01*
X30624762Y-147892676D02*
X30720000Y-147797438D01*
X30720000Y-147797438D02*
X30815238Y-147749819D01*
X31672381Y-147749819D02*
X31672381Y-148559342D01*
X31672381Y-148559342D02*
X31720000Y-148654580D01*
X31720000Y-148654580D02*
X31767619Y-148702200D01*
X31767619Y-148702200D02*
X31862857Y-148749819D01*
X31862857Y-148749819D02*
X32053333Y-148749819D01*
X32053333Y-148749819D02*
X32148571Y-148702200D01*
X32148571Y-148702200D02*
X32196190Y-148654580D01*
X32196190Y-148654580D02*
X32243809Y-148559342D01*
X32243809Y-148559342D02*
X32243809Y-147749819D01*
X32577143Y-147749819D02*
X33148571Y-147749819D01*
X32862857Y-148749819D02*
X32862857Y-147749819D01*
X33481905Y-148749819D02*
X33481905Y-147749819D01*
X33481905Y-147749819D02*
X33862857Y-147749819D01*
X33862857Y-147749819D02*
X33958095Y-147797438D01*
X33958095Y-147797438D02*
X34005714Y-147845057D01*
X34005714Y-147845057D02*
X34053333Y-147940295D01*
X34053333Y-147940295D02*
X34053333Y-148083152D01*
X34053333Y-148083152D02*
X34005714Y-148178390D01*
X34005714Y-148178390D02*
X33958095Y-148226009D01*
X33958095Y-148226009D02*
X33862857Y-148273628D01*
X33862857Y-148273628D02*
X33481905Y-148273628D01*
X34481905Y-147749819D02*
X34481905Y-148559342D01*
X34481905Y-148559342D02*
X34529524Y-148654580D01*
X34529524Y-148654580D02*
X34577143Y-148702200D01*
X34577143Y-148702200D02*
X34672381Y-148749819D01*
X34672381Y-148749819D02*
X34862857Y-148749819D01*
X34862857Y-148749819D02*
X34958095Y-148702200D01*
X34958095Y-148702200D02*
X35005714Y-148654580D01*
X35005714Y-148654580D02*
X35053333Y-148559342D01*
X35053333Y-148559342D02*
X35053333Y-147749819D01*
X35386667Y-147749819D02*
X35958095Y-147749819D01*
X35672381Y-148749819D02*
X35672381Y-147749819D01*
D15*
X60590476Y-64938335D02*
X60590476Y-65585954D01*
X60590476Y-65585954D02*
X60628571Y-65662144D01*
X60628571Y-65662144D02*
X60666666Y-65700240D01*
X60666666Y-65700240D02*
X60742857Y-65738335D01*
X60742857Y-65738335D02*
X60895238Y-65738335D01*
X60895238Y-65738335D02*
X60971428Y-65700240D01*
X60971428Y-65700240D02*
X61009523Y-65662144D01*
X61009523Y-65662144D02*
X61047619Y-65585954D01*
X61047619Y-65585954D02*
X61047619Y-64938335D01*
X61352380Y-64938335D02*
X61847618Y-64938335D01*
X61847618Y-64938335D02*
X61580952Y-65243097D01*
X61580952Y-65243097D02*
X61695237Y-65243097D01*
X61695237Y-65243097D02*
X61771428Y-65281192D01*
X61771428Y-65281192D02*
X61809523Y-65319287D01*
X61809523Y-65319287D02*
X61847618Y-65395478D01*
X61847618Y-65395478D02*
X61847618Y-65585954D01*
X61847618Y-65585954D02*
X61809523Y-65662144D01*
X61809523Y-65662144D02*
X61771428Y-65700240D01*
X61771428Y-65700240D02*
X61695237Y-65738335D01*
X61695237Y-65738335D02*
X61466666Y-65738335D01*
X61466666Y-65738335D02*
X61390475Y-65700240D01*
X61390475Y-65700240D02*
X61352380Y-65662144D01*
X66866667Y-57688335D02*
X66600000Y-57307382D01*
X66409524Y-57688335D02*
X66409524Y-56888335D01*
X66409524Y-56888335D02*
X66714286Y-56888335D01*
X66714286Y-56888335D02*
X66790476Y-56926430D01*
X66790476Y-56926430D02*
X66828571Y-56964525D01*
X66828571Y-56964525D02*
X66866667Y-57040716D01*
X66866667Y-57040716D02*
X66866667Y-57155001D01*
X66866667Y-57155001D02*
X66828571Y-57231192D01*
X66828571Y-57231192D02*
X66790476Y-57269287D01*
X66790476Y-57269287D02*
X66714286Y-57307382D01*
X66714286Y-57307382D02*
X66409524Y-57307382D01*
X67590476Y-56888335D02*
X67209524Y-56888335D01*
X67209524Y-56888335D02*
X67171428Y-57269287D01*
X67171428Y-57269287D02*
X67209524Y-57231192D01*
X67209524Y-57231192D02*
X67285714Y-57193097D01*
X67285714Y-57193097D02*
X67476190Y-57193097D01*
X67476190Y-57193097D02*
X67552381Y-57231192D01*
X67552381Y-57231192D02*
X67590476Y-57269287D01*
X67590476Y-57269287D02*
X67628571Y-57345478D01*
X67628571Y-57345478D02*
X67628571Y-57535954D01*
X67628571Y-57535954D02*
X67590476Y-57612144D01*
X67590476Y-57612144D02*
X67552381Y-57650240D01*
X67552381Y-57650240D02*
X67476190Y-57688335D01*
X67476190Y-57688335D02*
X67285714Y-57688335D01*
X67285714Y-57688335D02*
X67209524Y-57650240D01*
X67209524Y-57650240D02*
X67171428Y-57612144D01*
%TO.C,R2*%
D16*
X96237258Y-141122500D02*
X95762742Y-141122500D01*
X96237258Y-140077500D02*
X95762742Y-140077500D01*
%TO.C,R3*%
X97612258Y-137852500D02*
X97137742Y-137852500D01*
X97612258Y-138897500D02*
X97137742Y-138897500D01*
%TO.C,C1*%
D17*
X93636398Y-135234792D02*
X93636398Y-137115208D01*
X93788799Y-137267609D02*
X95273787Y-137267609D01*
X95273787Y-135082391D02*
X93788799Y-135082391D01*
X97126213Y-135082391D02*
X98611201Y-135082391D01*
X98611201Y-137267609D02*
X97126213Y-137267609D01*
X98763602Y-135234792D02*
X98763602Y-137115208D01*
X93636398Y-135234792D02*
G75*
G02*
X93788799Y-135082398I152402J-8D01*
G01*
X93788799Y-137267609D02*
G75*
G02*
X93636391Y-137115208I1J152409D01*
G01*
X98611201Y-135082391D02*
G75*
G02*
X98763602Y-135234792I1J-152400D01*
G01*
X98763602Y-137115208D02*
G75*
G02*
X98611201Y-137267609I-152400J-1D01*
G01*
%TO.C,D22*%
D18*
X78847778Y-29573857D02*
X84849810Y-29573857D01*
X78847778Y-32576143D02*
X84849810Y-32576143D01*
X83348667Y-32576143D02*
X83348667Y-29573857D01*
%TO.C,D23*%
X67059335Y-29673857D02*
X73061367Y-29673857D01*
X67059335Y-32676143D02*
X73061367Y-32676143D01*
X71560224Y-32676143D02*
X71560224Y-29673857D01*
%TO.C,D14*%
X92698857Y-88299359D02*
X92698857Y-94301391D01*
X92698857Y-92800248D02*
X95701143Y-92800248D01*
X95701143Y-88299359D02*
X95701143Y-94301391D01*
%TO.C,D11*%
X86348857Y-113534487D02*
X86348857Y-119536519D01*
X86348857Y-118035376D02*
X89351143Y-118035376D01*
X89351143Y-113534487D02*
X89351143Y-119536519D01*
%TO.C,C2*%
D17*
X92307391Y-129588799D02*
X92307391Y-131073787D01*
X92307391Y-134411201D02*
X92307391Y-132926213D01*
X94340208Y-129436398D02*
X92459792Y-129436398D01*
X94340208Y-134563602D02*
X92459792Y-134563602D01*
X94492609Y-131073787D02*
X94492609Y-129588799D01*
X94492609Y-132926213D02*
X94492609Y-134411201D01*
X92307391Y-129588799D02*
G75*
G02*
X92459792Y-129436391I152409J-1D01*
G01*
X92459792Y-134563602D02*
G75*
G02*
X92307391Y-134411201I-1J152400D01*
G01*
X94340208Y-129436398D02*
G75*
G02*
X94492602Y-129588799I-8J-152402D01*
G01*
X94492609Y-134411201D02*
G75*
G02*
X94340208Y-134563602I-152400J-1D01*
G01*
%TO.C,U1*%
D16*
X95890000Y-131202500D02*
X97710000Y-131202500D01*
X95890000Y-131252500D02*
X95890000Y-131202500D01*
X95890000Y-133152500D02*
X95890000Y-132372500D01*
X95890000Y-134322500D02*
X95890000Y-134272500D01*
X97710000Y-131202500D02*
X97710000Y-131252500D01*
X97710000Y-134272500D02*
X97710000Y-134322500D01*
X97710000Y-134322500D02*
X95890000Y-134322500D01*
X98250000Y-134272500D02*
X98490000Y-134602500D01*
X98010000Y-134602500D01*
X98250000Y-134272500D01*
G36*
X98490000Y-134602500D02*
G01*
X98010000Y-134602500D01*
X98250000Y-134272500D01*
X98490000Y-134602500D01*
G37*
%TO.C,R1*%
X98637258Y-142077500D02*
X98162742Y-142077500D01*
X98637258Y-143122500D02*
X98162742Y-143122500D01*
%TO.C,D6*%
D18*
X32848857Y-103149359D02*
X32848857Y-109151391D01*
X32848857Y-107650248D02*
X35851143Y-107650248D01*
X35851143Y-103149359D02*
X35851143Y-109151391D01*
%TO.C,D3*%
X35098857Y-94399359D02*
X35098857Y-100401391D01*
X35098857Y-98900248D02*
X38101143Y-98900248D01*
X38101143Y-94399359D02*
X38101143Y-100401391D01*
%TO.C,D27*%
X40598857Y-63034487D02*
X40598857Y-69036519D01*
X40598857Y-67535376D02*
X43601143Y-67535376D01*
X43601143Y-63034487D02*
X43601143Y-69036519D01*
%TO.C,D26*%
X46098857Y-37649359D02*
X46098857Y-43651391D01*
X46098857Y-42150248D02*
X49101143Y-42150248D01*
X49101143Y-37649359D02*
X49101143Y-43651391D01*
%TO.C,R4*%
D16*
X63612258Y-66877500D02*
X63137742Y-66877500D01*
X63612258Y-67922500D02*
X63137742Y-67922500D01*
%TO.C,J1*%
X102695000Y-131580000D02*
X103965000Y-131580000D01*
X102695000Y-132850000D02*
X102695000Y-131580000D01*
X105042358Y-134960000D02*
X105355000Y-134960000D01*
X105042358Y-135820000D02*
X105355000Y-135820000D01*
X105042358Y-137500000D02*
X105355000Y-137500000D01*
X105042358Y-138360000D02*
X105355000Y-138360000D01*
X105042358Y-140040000D02*
X105355000Y-140040000D01*
X105042358Y-140900000D02*
X105355000Y-140900000D01*
X105042358Y-142580000D02*
X105355000Y-142580000D01*
X105042358Y-143440000D02*
X105355000Y-143440000D01*
X105042358Y-145120000D02*
X105355000Y-145120000D01*
X105042358Y-145980000D02*
X105355000Y-145980000D01*
X105125000Y-132420000D02*
X105355000Y-132420000D01*
X105125000Y-133280000D02*
X105355000Y-133280000D01*
X105355000Y-134120000D02*
X108115000Y-134120000D01*
X105355000Y-136660000D02*
X108115000Y-136660000D01*
X105355000Y-139200000D02*
X108115000Y-139200000D01*
X105355000Y-141740000D02*
X108115000Y-141740000D01*
X105355000Y-144280000D02*
X108115000Y-144280000D01*
X108115000Y-134960000D02*
X114115000Y-134960000D01*
X108115000Y-137500000D02*
X114115000Y-137500000D01*
X108115000Y-140040000D02*
X114115000Y-140040000D01*
X108115000Y-142580000D02*
X114115000Y-142580000D01*
X108115000Y-145120000D02*
X114115000Y-145120000D01*
X114115000Y-134960000D02*
X114115000Y-135820000D01*
X114115000Y-135820000D02*
X108115000Y-135820000D01*
X114115000Y-137500000D02*
X114115000Y-138360000D01*
X114115000Y-138360000D02*
X108115000Y-138360000D01*
X114115000Y-140040000D02*
X114115000Y-140900000D01*
X114115000Y-140900000D02*
X108115000Y-140900000D01*
X114115000Y-142580000D02*
X114115000Y-143440000D01*
X114115000Y-143440000D02*
X108115000Y-143440000D01*
X114115000Y-145120000D02*
X114115000Y-145980000D01*
X114115000Y-145980000D02*
X108115000Y-145980000D01*
X105355000Y-131470000D02*
X108115000Y-131470000D01*
X108115000Y-146930000D01*
X105355000Y-146930000D01*
X105355000Y-131470000D01*
X108115000Y-132420000D02*
X114115000Y-132420000D01*
X114115000Y-133280000D01*
X108115000Y-133280000D01*
X108115000Y-132420000D01*
G36*
X108115000Y-132420000D02*
G01*
X114115000Y-132420000D01*
X114115000Y-133280000D01*
X108115000Y-133280000D01*
X108115000Y-132420000D01*
G37*
%TO.C,D16*%
D18*
X69559487Y-78073857D02*
X75561519Y-78073857D01*
X69559487Y-81076143D02*
X75561519Y-81076143D01*
X74060376Y-81076143D02*
X74060376Y-78073857D01*
%TO.C,D4*%
X37098857Y-86469463D02*
X37098857Y-92471495D01*
X37098857Y-90970352D02*
X40101143Y-90970352D01*
X40101143Y-86469463D02*
X40101143Y-92471495D01*
%TO.C,D2*%
X45994463Y-78073857D02*
X51996495Y-78073857D01*
X45994463Y-81076143D02*
X51996495Y-81076143D01*
X50495352Y-81076143D02*
X50495352Y-78073857D01*
%TO.C,D13*%
X90848857Y-96034487D02*
X90848857Y-102036519D01*
X90848857Y-100535376D02*
X93851143Y-100535376D01*
X93851143Y-96034487D02*
X93851143Y-102036519D01*
%TO.C,J2*%
D16*
X27510000Y-131495000D02*
X27510000Y-146855000D01*
X27510000Y-131495000D02*
X36140000Y-131495000D01*
X27510000Y-131615000D02*
X36140000Y-131615000D01*
X27510000Y-131733095D02*
X36140000Y-131733095D01*
X27510000Y-131851190D02*
X36140000Y-131851190D01*
X27510000Y-131969286D02*
X36140000Y-131969286D01*
X27510000Y-132087381D02*
X36140000Y-132087381D01*
X27510000Y-132205476D02*
X36140000Y-132205476D01*
X27510000Y-132323571D02*
X36140000Y-132323571D01*
X27510000Y-132441667D02*
X36140000Y-132441667D01*
X27510000Y-132559762D02*
X36140000Y-132559762D01*
X27510000Y-132677857D02*
X36140000Y-132677857D01*
X27510000Y-132795952D02*
X36140000Y-132795952D01*
X27510000Y-132914048D02*
X36140000Y-132914048D01*
X27510000Y-133032143D02*
X36140000Y-133032143D01*
X27510000Y-133150238D02*
X36140000Y-133150238D01*
X27510000Y-133268333D02*
X36140000Y-133268333D01*
X27510000Y-133386429D02*
X36140000Y-133386429D01*
X27510000Y-133504524D02*
X36140000Y-133504524D01*
X27510000Y-133622619D02*
X36140000Y-133622619D01*
X27510000Y-133740714D02*
X36140000Y-133740714D01*
X27510000Y-133858810D02*
X36140000Y-133858810D01*
X27510000Y-133976905D02*
X36140000Y-133976905D01*
X27510000Y-134095000D02*
X36140000Y-134095000D01*
X27510000Y-136635000D02*
X36140000Y-136635000D01*
X27510000Y-139175000D02*
X36140000Y-139175000D01*
X27510000Y-141715000D02*
X36140000Y-141715000D01*
X27510000Y-144255000D02*
X36140000Y-144255000D01*
X27510000Y-146855000D02*
X36140000Y-146855000D01*
X36140000Y-131495000D02*
X36140000Y-146855000D01*
X36140000Y-132465000D02*
X36490000Y-132465000D01*
X36140000Y-133185000D02*
X36490000Y-133185000D01*
X36140000Y-135005000D02*
X36550000Y-135005000D01*
X36140000Y-135725000D02*
X36550000Y-135725000D01*
X36140000Y-137545000D02*
X36550000Y-137545000D01*
X36140000Y-138265000D02*
X36550000Y-138265000D01*
X36140000Y-140085000D02*
X36550000Y-140085000D01*
X36140000Y-140805000D02*
X36550000Y-140805000D01*
X36140000Y-142625000D02*
X36550000Y-142625000D01*
X36140000Y-143345000D02*
X36550000Y-143345000D01*
X36140000Y-145165000D02*
X36550000Y-145165000D01*
X36140000Y-145885000D02*
X36550000Y-145885000D01*
X37600000Y-131495000D02*
X38710000Y-131495000D01*
X38710000Y-131495000D02*
X38710000Y-132825000D01*
%TO.C,D18*%
D18*
X96298857Y-57299359D02*
X96298857Y-63301391D01*
X96298857Y-61800248D02*
X99301143Y-61800248D01*
X99301143Y-57299359D02*
X99301143Y-63301391D01*
%TO.C,D10*%
X61876103Y-124323857D02*
X67878135Y-124323857D01*
X61876103Y-127326143D02*
X67878135Y-127326143D01*
X66376992Y-127326143D02*
X66376992Y-124323857D01*
%TO.C,D19*%
X98348857Y-48584335D02*
X98348857Y-54586367D01*
X98348857Y-53085224D02*
X101351143Y-53085224D01*
X101351143Y-48584335D02*
X101351143Y-54586367D01*
%TO.C,D1*%
X57849471Y-78073857D02*
X63851503Y-78073857D01*
X57849471Y-81076143D02*
X63851503Y-81076143D01*
X62350360Y-81076143D02*
X62350360Y-78073857D01*
%TO.C,D25*%
X44098857Y-45534487D02*
X44098857Y-51536519D01*
X44098857Y-50035376D02*
X47101143Y-50035376D01*
X47101143Y-45534487D02*
X47101143Y-51536519D01*
%TO.C,D21*%
X90724359Y-29573857D02*
X96726391Y-29573857D01*
X90724359Y-32576143D02*
X96726391Y-32576143D01*
X95225248Y-32576143D02*
X95225248Y-29573857D01*
%TO.C,D20*%
X100098857Y-40299359D02*
X100098857Y-46301391D01*
X100098857Y-44800248D02*
X103101143Y-44800248D01*
X103101143Y-40299359D02*
X103101143Y-46301391D01*
%TO.C,D5*%
X31098857Y-111399359D02*
X31098857Y-117401391D01*
X31098857Y-115900248D02*
X34101143Y-115900248D01*
X34101143Y-111399359D02*
X34101143Y-117401391D01*
%TO.C,D28*%
X42348857Y-54534487D02*
X42348857Y-60536519D01*
X42348857Y-59035376D02*
X45351143Y-59035376D01*
X45351143Y-54534487D02*
X45351143Y-60536519D01*
%TO.C,D7*%
X49992719Y-124323857D02*
X55994751Y-124323857D01*
X49992719Y-127326143D02*
X55994751Y-127326143D01*
X54493608Y-127326143D02*
X54493608Y-124323857D01*
%TO.C,U3*%
D16*
X62165000Y-64485000D02*
X62165000Y-59865000D01*
X70235000Y-59865000D02*
X70235000Y-64485000D01*
X62620000Y-66035000D02*
X62860000Y-66365000D01*
X62380000Y-66365000D01*
X62620000Y-66035000D01*
G36*
X62860000Y-66365000D02*
G01*
X62380000Y-66365000D01*
X62620000Y-66035000D01*
X62860000Y-66365000D01*
G37*
%TO.C,D9*%
D18*
X73759487Y-124323857D02*
X79761519Y-124323857D01*
X73759487Y-127326143D02*
X79761519Y-127326143D01*
X78260376Y-127326143D02*
X78260376Y-124323857D01*
%TO.C,D17*%
X94848857Y-66034487D02*
X94848857Y-72036519D01*
X94848857Y-70535376D02*
X97851143Y-70535376D01*
X97851143Y-66034487D02*
X97851143Y-72036519D01*
%TO.C,D15*%
X81559487Y-78073857D02*
X87561519Y-78073857D01*
X81559487Y-81076143D02*
X87561519Y-81076143D01*
X86060376Y-81076143D02*
X86060376Y-78073857D01*
%TO.C,R5*%
D16*
X64362742Y-56877500D02*
X64837258Y-56877500D01*
X64362742Y-57922500D02*
X64837258Y-57922500D01*
%TO.C,D24*%
D18*
X55194615Y-29573857D02*
X61196647Y-29573857D01*
X55194615Y-32576143D02*
X61196647Y-32576143D01*
X59695504Y-32576143D02*
X59695504Y-29573857D01*
%TO.C,D12*%
X88598857Y-105034487D02*
X88598857Y-111036519D01*
X88598857Y-109535376D02*
X91601143Y-109535376D01*
X91601143Y-105034487D02*
X91601143Y-111036519D01*
%TO.C,D8*%
X38109335Y-124323857D02*
X44111367Y-124323857D01*
X38109335Y-127326143D02*
X44111367Y-127326143D01*
X42610224Y-127326143D02*
X42610224Y-124323857D01*
%TD*%
M02*
