M48
; DRILL file KiCad 10.0.2 date 2026-09-15T18:13:44
; FORMAT={-:-/ absolute / metric / decimal}
; #@! TF.CreationDate,2026-09-15T18:13:44+10:00
; #@! TF.GenerationSoftware,Kicad,Pcbnew,10.0.2
; #@! TF.FileFunction,Plated,1,2,PTH
FMAT,2
METRIC
; #@! TA.AperFunction,Plated,PTH,ViaDrill
T1C0.300
; #@! TA.AperFunction,Plated,PTH,ComponentDrill
T2C1.000
; #@! TA.AperFunction,Plated,PTH,ComponentDrill
T3C2.500
%
G90
G05
T1
X56.2Y-78.6
X57.0Y-78.2
X57.0Y-135.0
X57.0Y-137.8
X57.6Y-136.575
X58.4Y-126.6
X61.4Y-61.6
X62.0Y-66.2
X62.4Y-137.2
X62.6Y-77.0
X63.535Y-76.885
X63.734Y-68.934
X64.8Y-56.4
X65.049Y-137.175
X68.612Y-136.563
X94.0Y-138.375
X94.0Y-139.6
X95.563Y-141.837
X96.912Y-141.488
X104.4Y-128.6
T2
X37.6Y-132.825
X37.6Y-135.365
X37.6Y-137.905
X37.6Y-140.445
X37.6Y-142.985
X37.6Y-145.525
X103.965Y-132.85
X103.965Y-135.39
X103.965Y-137.93
X103.965Y-140.47
X103.965Y-143.01
X103.965Y-145.55
T3
X31.6Y-23.575
X67.475Y-140.45
X104.1Y-23.575
M30
